<svg version="1.1" xmlns="http://www.w3.org/2000/svg" width="768" height="768" viewBox="0 0 768 768">
<path d="M544 160v48.549c0 3.535-2.866 6.4-6.4 6.4-1.697 0-3.325-0.674-4.525-1.874l-73.761-73.761c-6.248-6.248-6.248-16.379 0-22.628l73.761-73.761c2.499-2.499 6.551-2.499 9.051 0 1.2 1.2 1.874 2.828 1.874 4.525v48.549h96c17.673 0 32 14.327 32 32v128c0 17.673-14.327 32-32 32s-32-14.327-32-32v-96h-64z"></path>
<path d="M268.471 446.068c-9.308 1.274-18.813 1.933-28.471 1.933-114.875 0-208-93.125-208-208s93.124-208 208-208c114.875 0 208 93.124 208 208 0 9.743-0.67 19.331-1.966 28.718-7.641 2.351-21.352 7.492-35.7 14.311-16.237 7.717-33.818 18.389-44.24 26.595 2.159-3.898 4.135-7.894 5.921-11.976 7.87-17.986 11.985-37.47 11.985-57.648 0-79.529-64.471-144-144-144s-144 64.471-144 144c0 79.529 64.471 144 144 144 22.353 0 43.853-5.052 63.381-14.647 2.042-1.004 4.060-2.055 6.051-3.154-3.517 4.212-14.516 20.401-22.762 36.405-8.946 17.362-15.146 34.769-18.199 43.463z"></path>
<path d="M303.196 280.568c6.248 6.248 6.248 16.379 0 22.627s-16.379 6.248-22.627 0l-45.255-45.255c-1.154-1.154-11.314-11.818-11.314-17.942v-64c0-8.837 7.163-16 16-16s16 7.163 16 16v57.657l47.196 46.912z"></path>
<path d="M528 672c79.529 0 144-64.471 144-144s-64.471-144-144-144c-79.529 0-144 64.471-144 144s64.471 144 144 144zM528 736c-114.875 0-208-93.125-208-208s93.124-208 208-208c114.875 0 208 93.124 208 208s-93.125 208-208 208z"></path>
<path d="M591.196 568.568c6.248 6.248 6.248 16.379 0 22.627s-16.379 6.248-22.627 0l-45.255-45.255c-1.153-1.154-11.314-11.818-11.314-17.942v-64c0-8.837 7.163-16 16-16s16 7.163 16 16v57.657l47.196 46.912z"></path>
</svg>
