<!-- Generated by IcoMoon.io -->
<svg version="1.1" xmlns="http://www.w3.org/2000/svg" width="28" height="32" viewBox="0 0 28 32">
<title>cloud-sun</title>
<path d="M26.077 13.821h-2.006c-0.554 0-1.003-0.449-1.003-1.003 0-0.553 0.449-1.003 1.003-1.003h2.006c0.553 0 1.003 0.449 1.003 1.003 0 0.554-0.45 1.003-1.003 1.003zM22.136 7.144c-0.392 0.392-1.027 0.392-1.418 0s-0.392-1.027 0-1.418l1.418-1.418c0.392-0.392 1.027-0.392 1.418 0s0.392 1.027 0 1.418l-1.418 1.418zM20.658 14.972v0c0.877 1.046 1.407 2.392 1.407 3.864 0 3.323-2.694 6.018-6.018 6.018-1.392 0-6.42 0-8.024 0-4.431 0-8.024-3.593-8.024-8.023s3.592-8.024 8.024-8.024c0.789 0 1.55 0.117 2.269 0.328 1.101-1.418 2.818-2.334 4.752-2.334 3.324 0 6.018 2.694 6.018 6.017 0 0.76-0.147 1.485-0.404 2.154zM2.006 16.83c0 3.323 2.694 6.017 6.017 6.017 1.814 0 6.509 0 8.024 0 2.216 0 4.012-1.796 4.012-4.012s-1.796-4.012-4.012-4.012c-0.802 0-1.546 0.242-2.173 0.647-0.618-2.666-2.996-4.659-5.85-4.659-3.324 0-6.017 2.694-6.017 6.018zM15.044 8.806c-1.109 0-2.114 0.451-2.84 1.178 1.174 0.72 2.149 1.731 2.823 2.936 0.333-0.057 0.671-0.103 1.020-0.103 1.066 0 2.066 0.28 2.934 0.766v0c0.048-0.248 0.075-0.503 0.075-0.766 0-2.215-1.796-4.011-4.012-4.011zM15.044 4.794c-0.553 0-1.003-0.449-1.003-1.003v-2.006c0-0.554 0.449-1.003 1.003-1.003 0.555 0 1.003 0.449 1.003 1.003v2.006c0 0.554-0.449 1.003-1.003 1.003zM7.952 7.144l-1.418-1.418c-0.392-0.392-0.392-1.027 0-1.418s1.027-0.392 1.418 0l1.418 1.418c0.392 0.391 0.392 1.027 0 1.418s-1.027 0.392-1.418 0z"></path>
</svg>
