<!-- Generated by IcoMoon.io -->
<svg version="1.1" xmlns="http://www.w3.org/2000/svg" width="28" height="32" viewBox="0 0 28 32">
<title>cloud-sun-rain</title>
<path d="M26.076 13.821h-2.006c-0.554 0-1.003-0.449-1.003-1.003 0-0.553 0.449-1.003 1.003-1.003h2.006c0.554 0 1.003 0.449 1.003 1.003 0 0.554-0.449 1.003-1.003 1.003zM22.136 7.144c-0.392 0.392-1.027 0.392-1.418 0s-0.392-1.027 0-1.418l1.418-1.418c0.391-0.392 1.027-0.392 1.418 0s0.391 1.027 0 1.418l-1.418 1.418zM20.658 14.972v0c0.877 1.046 1.407 2.392 1.407 3.864 0 2.619-1.676 4.841-4.012 5.668v-2.198c1.198-0.694 2.006-1.986 2.006-3.471 0-2.216-1.796-4.012-4.012-4.012-0.803 0-1.547 0.242-2.174 0.647-0.618-2.666-2.995-4.659-5.85-4.659-3.324 0-6.018 2.694-6.018 6.018 0 1.78 0.778 3.375 2.006 4.476v2.465c-2.396-1.388-4.012-3.973-4.012-6.941 0-4.432 3.592-8.024 8.023-8.024 0.789 0 1.549 0.117 2.269 0.328 1.101-1.418 2.817-2.334 4.752-2.334 3.324 0 6.017 2.694 6.017 6.017 0 0.76-0.146 1.485-0.404 2.154zM15.044 8.806c-1.11 0-2.114 0.451-2.84 1.178 1.174 0.72 2.15 1.731 2.824 2.936 0.333-0.057 0.67-0.103 1.020-0.103 1.066 0 2.065 0.28 2.934 0.766v0c0.048-0.248 0.075-0.503 0.075-0.766 0-2.215-1.796-4.011-4.012-4.011zM15.044 4.794c-0.554 0-1.003-0.449-1.003-1.003v-2.006c0-0.554 0.449-1.003 1.003-1.003s1.003 0.449 1.003 1.003v2.006c0 0.554-0.449 1.003-1.003 1.003zM7.952 7.144l-1.418-1.418c-0.391-0.392-0.391-1.027 0-1.418s1.027-0.392 1.418 0l1.418 1.418c0.392 0.391 0.392 1.027 0 1.418s-1.027 0.392-1.418 0zM7.020 18.836c0.554 0 1.003 0.449 1.003 1.003v2.006c0 0.554-0.449 1.003-1.003 1.003s-1.003-0.449-1.003-1.003v-2.006c0-0.554 0.449-1.003 1.003-1.003zM7.020 24.853c0.554 0 1.003 0.449 1.003 1.003v2.006c0 0.554-0.449 1.003-1.003 1.003s-1.003-0.449-1.003-1.003v-2.006c0-0.554 0.449-1.003 1.003-1.003zM11.032 20.841c0.554 0 1.003 0.449 1.003 1.003v2.006c0 0.553-0.449 1.003-1.003 1.003s-1.003-0.45-1.003-1.003v-2.006c0-0.554 0.449-1.003 1.003-1.003zM11.032 26.859c0.554 0 1.003 0.449 1.003 1.003v2.006c0 0.554-0.449 1.003-1.003 1.003s-1.003-0.449-1.003-1.003v-2.006c0-0.553 0.449-1.003 1.003-1.003zM15.044 18.836c0.554 0 1.003 0.449 1.003 1.003v2.006c0 0.554-0.449 1.003-1.003 1.003s-1.003-0.449-1.003-1.003v-2.006c0-0.554 0.449-1.003 1.003-1.003zM15.044 24.853c0.554 0 1.003 0.449 1.003 1.003v2.006c0 0.554-0.449 1.003-1.003 1.003s-1.003-0.449-1.003-1.003v-2.006c0-0.554 0.449-1.003 1.003-1.003z"></path>
</svg>
