<!-- Generated by IcoMoon.io -->
<svg version="1.1" xmlns="http://www.w3.org/2000/svg" width="24" height="32" viewBox="0 0 24 32">
<title>cloud-moon</title>
<path d="M20.972 15.383v0c0.686 0.978 1.093 2.166 1.093 3.452 0 3.323-2.694 6.018-6.017 6.018-1.392 0-6.42 0-8.024 0-4.431 0-8.024-3.593-8.024-8.023s3.592-8.024 8.024-8.024c1.004 0 1.963 0.188 2.848 0.525v0c0.82-2.348 3.048-4.036 5.677-4.036 0.379 0 0.748 0.039 1.107 0.106-0.066 0.288-0.104 0.588-0.104 0.897 0 2.216 1.796 4.012 4.011 4.012 0.309 0 0.608-0.038 0.897-0.104 0.067 0.359 0.106 0.729 0.106 1.107 0 1.572-0.607 2.998-1.594 4.070zM2.006 16.83c0 3.323 2.694 6.017 6.017 6.017 1.814 0 6.509 0 8.024 0 2.216 0 4.012-1.796 4.012-4.012s-1.796-4.012-4.012-4.012c-0.802 0-1.546 0.242-2.174 0.647-0.618-2.666-2.996-4.659-5.85-4.659-3.324 0-6.017 2.694-6.017 6.018zM11.81 9.76c0.001 0 0.001 0 0.001 0s-0.001 0-0.001 0zM15.652 7.405c-1.455 0.333-2.595 1.46-2.971 2.897v0c0.962 0.688 1.767 1.581 2.347 2.618 0.333-0.057 0.671-0.103 1.020-0.103 1.313 0 2.524 0.426 3.513 1.139v0c0.43-0.491 0.745-1.087 0.896-1.747-2.434-0.454-4.351-2.37-4.804-4.805z"></path>
</svg>
