<!-- Generated by IcoMoon.io -->
<svg version="1.1" xmlns="http://www.w3.org/2000/svg" width="24" height="32" viewBox="0 0 24 32">
<title>cloud-moon-rain</title>
<path d="M20.971 15.361v0c0.687 0.978 1.093 2.166 1.093 3.452 0 2.619-1.676 4.841-4.012 5.668v-2.198c1.198-0.694 2.006-1.986 2.006-3.471 0-2.216-1.796-4.012-4.011-4.012-0.803 0-1.547 0.241-2.174 0.648-0.618-2.666-2.996-4.659-5.85-4.659-3.323 0-6.017 2.694-6.017 6.018 0 1.78 0.777 3.375 2.006 4.476v2.465c-2.396-1.388-4.011-3.973-4.011-6.941 0-4.432 3.592-8.024 8.023-8.024 1.005 0 1.963 0.188 2.848 0.525v0c0.82-2.348 3.049-4.036 5.677-4.036 0.379 0 0.748 0.039 1.107 0.106-0.066 0.288-0.104 0.588-0.104 0.897 0 2.216 1.796 4.012 4.012 4.012 0.309 0 0.608-0.038 0.897-0.104 0.067 0.359 0.106 0.729 0.106 1.107 0 1.572-0.608 2.998-1.595 4.070zM15.651 7.383c-1.455 0.333-2.595 1.46-2.971 2.897v0c0.961 0.688 1.767 1.581 2.347 2.618 0.333-0.057 0.67-0.103 1.020-0.103 1.313 0 2.524 0.426 3.513 1.139v0c0.43-0.491 0.745-1.087 0.896-1.747-2.435-0.454-4.351-2.37-4.805-4.805zM7.020 18.813c0.554 0 1.003 0.449 1.003 1.003v2.006c0 0.554-0.449 1.003-1.003 1.003s-1.003-0.449-1.003-1.003v-2.006c0-0.554 0.449-1.003 1.003-1.003zM7.020 24.831c0.554 0 1.003 0.449 1.003 1.003v2.006c0 0.554-0.449 1.003-1.003 1.003s-1.003-0.449-1.003-1.003v-2.006c0-0.554 0.449-1.003 1.003-1.003zM11.032 20.819c0.554 0 1.003 0.449 1.003 1.003v2.006c0 0.553-0.449 1.003-1.003 1.003s-1.003-0.45-1.003-1.003v-2.006c0-0.554 0.449-1.003 1.003-1.003zM11.032 26.837c0.554 0 1.003 0.449 1.003 1.003v2.006c0 0.554-0.449 1.003-1.003 1.003s-1.003-0.449-1.003-1.003v-2.006c0-0.553 0.449-1.003 1.003-1.003zM15.044 18.813c0.554 0 1.003 0.449 1.003 1.003v2.006c0 0.554-0.449 1.003-1.003 1.003s-1.003-0.449-1.003-1.003v-2.006c0-0.554 0.449-1.003 1.003-1.003zM15.044 24.831c0.554 0 1.003 0.449 1.003 1.003v2.006c0 0.554-0.449 1.003-1.003 1.003s-1.003-0.449-1.003-1.003v-2.006c0-0.554 0.449-1.003 1.003-1.003z"></path>
</svg>
