<!-- Generated by IcoMoon.io -->
<svg version="1.1" xmlns="http://www.w3.org/2000/svg" width="22" height="32" viewBox="0 0 22 32">
<title>cloud</title>
<path d="M8.023 24.853c-4.431 0-8.023-3.593-8.023-8.024s3.592-8.024 8.023-8.024c3.011 0 5.631 1.661 7.004 4.114 0.333-0.057 0.671-0.103 1.020-0.103 3.324 0 6.018 2.695 6.018 6.018s-2.694 6.018-6.018 6.018c-1.392 0-6.42 0-8.023 0zM16.047 22.847c2.216 0 4.012-1.797 4.012-4.012s-1.796-4.012-4.012-4.012c-0.802 0-1.546 0.241-2.173 0.647-0.618-2.666-2.996-4.659-5.85-4.659-3.323 0-6.017 2.694-6.017 6.018s2.694 6.017 6.017 6.017c1.814-0 6.509-0 8.023-0z"></path>
</svg>
