<?xml version="1.0" encoding="utf-8"?>
<!-- Generator: Adobe Illustrator 21.1.0, SVG Export Plug-In . SVG Version: 6.00 Build 0)  -->
<svg version="1.1" id="Calque_1" xmlns="http://www.w3.org/2000/svg" xmlns:xlink="http://www.w3.org/1999/xlink" x="0px" y="0px"
	 viewBox="0 0 432 432" style="enable-background:new 0 0 432 432;" xml:space="preserve">
<style type="text/css">
	.st0{fill:#191464;}
	.st1{fill:#C82933;}
	.st2{fill:#E4C877;}
	.st3{fill:#B3B3B3;}
	.st4{fill:#342E8C;}
	.st5{fill:#CCCCCC;}
	.st6{fill:#F44244;}
	.st7{fill:#E6E6E6;}
	.st8{fill:#BD0725;}
	.st9{fill:#1A1A1A;}
	.st10{fill:#DA8F92;}
	.st11{fill:#F4D497;}
	.st12{fill:#F0A762;}
	.st13{fill:#8D4C36;}
	.st14{fill:#DAA18E;}
	.st15{fill:#E0C4BA;}
	.st16{fill:#DA9D8F;}
	.st17{fill:#70796B;}
	.st18{fill:#C5907E;}
	.st19{fill:#AAC69B;}
	.st20{fill:#B098A2;}
	.st21{fill:#2F3448;}
	.st22{fill:#8D1D11;}
	.st23{fill:#1B1E55;}
	.st24{fill:#B22931;}
	.st25{fill:#6E8BC4;}
	.st26{fill:#8B8286;}
	.st27{fill:#E3A8A3;}
	.st28{fill:#D7A392;}
	.st29{fill:#8B6E68;}
	.st30{fill:#C8A093;}
	.st31{fill:#333333;}
	.st32{fill:#B8B195;}
	.st33{fill:#864C38;}
	.st34{fill:#BA9490;}
	.st35{fill:#8D5948;}
	.st36{fill:#656E6E;}
	.st37{fill:#C6A687;}
	.st38{fill:#D6AA9C;}
	.st39{fill:#A06352;}
	.st40{fill:#ECBAA9;}
</style>
<g>
	<g>
		<g>
			<path class="st9" d="M165.6,81.8c0.9-1.9,2-4.1,3.4-6.5c1.4-2.5,2.9-4.6,4.7-6.5c1.8-1.8,3.8-3.1,6-3.7c2.2-0.6,4.7-0.2,7.5,1.5
				c1.2,0.7,2.2,1.6,3,2.7c0.8,1.1,1.5,2.3,2.1,3.7c0.6,1.3,1,2.7,1.4,4.1s0.6,2.8,0.8,4.1c0.3,2.1,0.6,3.8,0.7,5.1
				c0.2,1.3,0.2,2.4,0.2,3.3c0,0.9-0.1,1.6-0.2,2.2c-0.1,0.6-0.3,1.2-0.6,1.8c-0.3,0.8-0.8,1.4-1.5,1.8c-0.6,0.4-1.4,0.6-2.1,0.6
				c-0.8,0-1.6-0.2-2.3-0.6c-0.8-0.4-1.4-1-1.9-1.9c-0.6-1-1.1-2.4-1.4-4.2c-0.3-1.8-0.5-3.6-0.7-5.6c-0.2-2-0.5-4-0.8-6.1
				c-0.3-2.1-0.9-4-1.7-5.6c-0.3-0.7-0.7-0.9-1.3-0.5c-3.1,2.1-5.7,5-7.7,8.8c-2,3.8-3.6,7.7-4.7,11.7c-1.1,4.1-1.8,7.9-2.1,11.4
				c-0.3,3.6-0.3,6.2,0,8c0.1,0.8,0.3,1.9,0.5,3.3c0.2,1.4,0.4,2.8,0.5,4.2c0.2,1.4,0.3,2.8,0.4,4.1c0.1,1.3,0.1,2.3,0,2.9
				c-0.1,1.2-0.6,2.1-1.3,2.7c-0.7,0.6-1.6,1-2.5,1.1c-1,0.1-1.9-0.1-2.8-0.6c-1-0.5-1.7-1.2-2.2-2.1c-0.7-1.4-1.4-3.4-2.2-6.1
				c-0.7-2.7-1.3-5.7-1.9-9.2c-0.5-3.4-0.9-7-1.2-10.8c-0.3-3.8-0.4-7.5-0.2-11.1c0.1-4.8,0.3-8.7,0.6-11.8c0.3-3.1,0.7-5.4,1.2-7.1
				s1.3-2.7,2.2-3.2c0.9-0.5,2.1-0.6,3.6-0.4c1.3,0.2,2.3,0.7,2.8,1.4c0.6,0.7,1,1.7,1.2,3c0.2,1.2,0.2,2.7,0.1,4.4
				c-0.1,1.7-0.2,3.6-0.2,5.7C165.2,81.8,165.4,81.8,165.6,81.8z"/>
			<path class="st9" d="M207.1,68.6c1.9-2,4-2.9,6.3-2.8c2.2,0.2,4.3,1.1,6.1,2.7c1.8,1.6,3.2,3.8,4.2,6.6c1,2.8,1.2,5.7,0.5,8.9
				c-0.6,2.9-2.3,4.6-5.3,5.4c-1.5,0.4-2.7,0.6-3.6,0.6c-0.9,0-1.6,0-2.1,0c-0.5,0-0.9,0.1-1.1,0.2c-0.2,0.2-0.3,0.6-0.3,1.2
				c-0.1,3.6,0.1,7.1,0.6,10.5c0.5,3.4,1.1,6.5,1.9,9.3c0.8,2.8,1.6,5.3,2.5,7.4c0.9,2.1,1.7,3.6,2.4,4.5c0.5,0.6,0.9,0.6,1.4-0.1
				c0.8-1,1.5-2.3,2.1-3.7c0.6-1.4,1-2.9,1.4-4.3c0.4-1.5,0.7-2.8,0.9-4.1c0.3-1.3,0.5-2.3,0.7-3c0.2-0.7,0.6-1.2,1.3-1.5
				c0.6-0.3,1.3-0.3,2-0.2c0.7,0.1,1.3,0.4,1.8,0.8c0.5,0.4,0.7,1,0.5,1.8c-0.4,2.1-0.8,4.1-1.3,6.2c-0.5,2-1.1,4.1-1.9,6.1
				c-1.6,4-3.6,6.4-6.2,7.3c-2.6,0.9-5.2,0.5-7.8-1.1c-2.7-1.6-5.1-4.3-7.4-8.2s-3.9-8.5-4.9-13.9c-0.5-2.6-0.8-5.6-1-9
				c-0.2-3.4-0.1-6.8,0.2-10.2c0.3-3.4,1-6.6,1.9-9.6C203.8,73,205.2,70.5,207.1,68.6z M215,72c-0.6,0.8-1.1,1.8-1.4,2.8
				c-0.4,1-0.6,2.1-0.8,3.2c-0.2,1.1-0.3,2.2-0.4,3.3c-0.1,1.1-0.2,2.1-0.2,3.1c-0.1,0.5,0.1,0.8,0.8,0.8c2.3,0.1,3.8,0.1,4.4-0.1
				c0.6-0.2,1-0.6,1.2-1.2c0.5-1.4,0.6-2.9,0.4-4.4c-0.2-1.5-0.5-2.9-1-4.1c-0.5-1.2-1-2.2-1.6-2.8C215.7,71.8,215.3,71.7,215,72z"
				/>
			<path class="st9" d="M247.5,92.2c0.3-0.1,0.4-0.2,0.4-0.3c0-0.2,0.1-0.3,0.2-0.5c2.3-5.5,4.7-9.6,7.3-12.6
				c2.6-2.9,5.1-4.8,7.6-5.6c2.5-0.8,4.7-0.7,6.7,0.3c2,1,3.6,2.8,4.8,5.2c1.2,2.4,1.8,5.4,1.8,9c0.1,3.6-0.7,7.5-2.2,11.7
				c-1.9,5.3-4.4,10.1-7.4,14.5c-3.1,4.4-6.8,8.2-11.3,11.5c-1.3,1-2.4,1.7-3.4,2.1c-0.9,0.5-1.8,0.7-2.6,0.8
				c-0.8,0.1-1.5,0.1-2.1-0.1c-0.6-0.2-1.3-0.4-1.9-0.7c-0.4-0.2-0.8-0.7-1.3-1.7c-0.5-0.9-1-2-1.6-3.4c-0.6-1.3-1.1-2.8-1.6-4.3
				c-0.5-1.6-1-3.1-1.4-4.6c-0.4-1.5-0.8-2.9-1.2-4.1c-0.4-1.2-0.6-2.2-0.7-2.8c-0.7-3.4-1.2-7-1.4-10.7c-0.2-3.7-0.2-7.2,0-10.5
				c0.2-3.3,0.7-6.4,1.3-9.2c0.6-2.8,1.5-4.9,2.5-6.5c0.6-1,1.4-1.7,2.3-2.1c1-0.5,1.9-0.6,2.9-0.6c0.9,0.1,1.8,0.4,2.4,1
				c0.7,0.6,1,1.5,1,2.6c0,0.6-0.1,1.6-0.2,2.9c-0.1,1.3-0.3,2.7-0.4,4.2c-0.2,1.6-0.3,3.2-0.5,4.8c-0.2,1.7-0.3,3.2-0.4,4.5
				c-0.1,1.4-0.1,2.5-0.1,3.5C247.2,91.5,247.3,92,247.5,92.2z M264.1,78.3c-2.3,1.4-4.4,3.3-6.1,5.6c-1.7,2.3-3.2,4.9-4.4,7.7
				c-1.2,2.8-2.2,5.7-2.9,8.7c-0.7,3-1.3,5.8-1.5,8.6c-0.3,2-0.2,4,0,5.9c0.3,1.9,0.6,3.8,1,5.7c0.1,0.5,0.6,0.5,1.5-0.1
				c0.9-0.6,1.9-1.6,3.1-3c1.2-1.4,2.5-3.2,3.8-5.2c1.4-2,2.6-4.3,3.6-6.7c0.6-1.4,1.2-3.2,1.8-5.6c0.6-2.4,1-4.9,1.3-7.5
				c0.3-2.6,0.4-5.2,0.2-7.7C265.4,82.1,264.9,80,264.1,78.3z"/>
		</g>
		<g>
			<path class="st9" d="M144.9,162.6c-0.3,1-0.5,2-0.6,2.8c-0.2,0.8-0.4,1.8-0.6,2.9c-0.2,1.1-0.5,2.3-0.7,3.8
				c-0.3,1.5-0.6,3.3-1.1,5.6c-0.5,2.3-1,5.1-1.6,8.4c-0.6,3.3-1.4,7.3-2.3,12.1c-0.3,1.1-0.6,2.1-1,2.9c-0.4,0.8-1.2,1.3-2.5,1.6
				c-0.9,0.1-1.7,0.1-2.3-0.1c-0.6-0.2-1.2-0.5-1.6-0.9c-0.5-0.4-0.8-0.8-1.1-1.3c-0.3-0.5-0.6-1-0.8-1.4c-1.1-2.1-2.2-4.3-3.2-6.7
				c-1-2.4-2-5.2-3-8.5c-1-3.3-2-7.2-3-11.6c-1-4.5-2.1-9.9-3.3-16.2c-0.1-0.8-0.3-2.1-0.6-3.8c-0.3-1.7-0.3-3.2-0.1-4.7
				c0.1-1,0.5-1.8,1-2.3c0.5-0.5,1.1-0.9,1.8-1c0.6-0.2,1.3-0.1,2,0.1c0.7,0.2,1.3,0.6,1.8,1.1c0.7,0.8,1.4,1.9,2,3.3
				c0.6,1.4,1.4,3.5,2.2,6.3c0.8,2.8,1.8,6.6,3,11.2c1.1,4.7,2.6,10.7,4.3,18c0.1,0.4,0.3,0.6,0.6,0.8c0.3-0.1,0.4-0.3,0.3-0.5
				c0-0.2,0-0.4,0-0.6c0.1-0.3,0.3-0.7,0.4-1.4c1.1-5.7,2.1-10.6,3-14.8c0.9-4.1,1.7-7.7,2.4-10.8c0.7-3.1,1.3-5.7,1.8-8
				c0.5-2.3,0.9-4.5,1.1-6.6c0.1-1.1,0.5-1.9,1.2-2.4c0.7-0.5,1.4-0.7,2.3-0.7c0.8,0,1.7,0.3,2.5,0.8c0.8,0.5,1.5,1.2,1.9,2.1
				c0.2,0.5,0.6,1.8,1.1,4c0.6,2.2,1.2,4.9,1.9,8c0.7,3.1,1.5,6.4,2.2,10c0.8,3.5,1.5,6.8,2.1,9.8c0.6,3,1.2,5.5,1.7,7.5
				c0.5,2,0.7,3.1,0.7,3.2c0.2,0.8,0.5,0.8,0.8-0.2c0.3-1,0.7-2.5,1.1-4.6c0.4-2.1,0.8-4.5,1.3-7.3c0.5-2.8,1-5.5,1.5-8.3
				c0.5-2.8,1-5.4,1.5-7.8c0.5-2.4,0.9-4.3,1.4-5.6c0.3-0.8,0.8-1.4,1.5-1.8s1.5-0.4,2.2-0.2c0.7,0.2,1.4,0.5,1.9,1.1
				c0.6,0.6,0.8,1.4,0.7,2.3c-0.1,0.9-0.3,2.4-0.8,4.6c-0.5,2.1-1,4.7-1.7,7.6c-0.7,2.9-1.4,6.1-2.1,9.5c-0.7,3.4-1.4,6.9-2.1,10.5
				c-0.7,3.5-1.3,7-1.7,10.4c-0.5,3.4-0.7,6.5-0.8,9.3c-0.1,1.7-0.6,2.9-1.6,3.5c-1,0.6-2.1,0.9-3.4,0.8c-0.8-0.1-1.5-0.3-2-0.6
				c-0.5-0.3-0.9-0.8-1.3-1.4c-0.4-0.6-0.7-1.4-1-2.4c-0.3-1-0.7-2.1-1.1-3.4c-1.9-6.1-3.8-12.2-5.5-18.2c-1.7-6-3.1-12.2-4.3-18.5
				c-0.1-0.3-0.1-0.5-0.2-0.7C145.4,163.2,145.2,162.9,144.9,162.6z"/>
			<path class="st9" d="M182.7,141.2c0.5-0.8,1.1-1.3,1.8-1.7c0.7-0.4,1.5-0.5,2.3-0.4c0.8,0.1,1.5,0.4,2.1,0.9
				c0.6,0.5,1.1,1.2,1.5,2c0.3,0.9,0.5,2.3,0.6,4c0.1,1.8,0.1,3.7,0.1,5.8c0,2.1,0,4.2-0.1,6.3c-0.1,2.1-0.2,4-0.2,5.6
				c0,1.7,0,2.9,0,3.8c0.1,0.9,0.2,1.1,0.5,0.7c0.5-0.8,1.2-2,2.2-3.4c0.9-1.4,2.3-2.9,3.9-4.4c1.8-1.6,3.8-2.6,5.9-3.3
				c2.1-0.6,4.3-0.7,6.3-0.2c2.1,0.5,4,1.6,5.8,3.3c1.8,1.7,3.2,4,4.3,7c1.1,3,1.8,6.7,2,11c0.2,4.4-0.2,9.4-1.2,15.3
				c-0.5,2.5-0.8,4.6-1.1,6.1c-0.3,1.6-0.6,2.8-0.8,3.7c-0.2,0.9-0.5,1.6-0.7,2c-0.2,0.5-0.5,0.9-0.8,1.3c-0.6,0.7-1.3,1.2-2,1.5
				c-0.7,0.3-1.5,0.4-2.2,0.3c-0.7-0.1-1.4-0.3-2-0.7c-0.6-0.4-1-1-1.2-1.6c-0.2-0.7-0.2-1.9-0.1-3.5c0.1-1.6,0.3-3.5,0.6-5.7
				c0.3-2.2,0.5-4.6,0.7-7.2c0.2-2.6,0.4-5.2,0.4-7.9c0-2.7-0.1-5.3-0.4-7.9c-0.3-2.6-0.9-5-1.8-7.2c-0.5-1.2-1-2.1-1.4-2.7
				c-0.4-0.6-0.8-1-1.2-1.3c-0.4-0.2-0.8-0.3-1.2-0.2c-0.4,0.1-0.8,0.2-1.2,0.3c-1.8,0.5-3.3,1.5-4.7,3c-1.4,1.5-2.5,3-3.4,4.5
				c-0.8,1.3-1.4,2.6-1.9,3.9c-0.5,1.3-0.9,2.5-1.2,3.7c-0.3,1.1-0.5,2.1-0.7,2.9c-0.2,0.8-0.3,1.4-0.4,1.8
				c-0.1,0.7-0.2,1.4-0.2,2.1c0,0.7,0,1.6,0.1,2.8c0.1,1.2,0.3,2.7,0.5,4.7c0.2,1.9,0.5,4.5,0.9,7.7c0.1,1.5,0.1,2.7,0,3.7
				c-0.1,1-0.8,1.7-2.1,2.2c-1.2,0.5-2.5,0.5-3.8,0c-1.3-0.5-2.2-1.5-2.7-3c-1.1-3.9-2-7.8-2.8-11.6c-0.7-3.9-1.2-7.7-1.4-11.6
				c-0.1-1.3-0.1-3-0.2-5.2c-0.1-2.1-0.1-4.5-0.1-7.1c0-2.6,0-5.3,0.1-8c0.1-2.7,0.2-5.3,0.3-7.7c0.2-2.4,0.4-4.5,0.7-6.4
				C181.8,143.4,182.2,142.1,182.7,141.2z"/>
			<path class="st9" d="M240.7,198.3c0.5,2.1,0.1,3.7-0.9,4.5c-1.1,0.9-2.3,1.2-3.8,0.8c-0.7-0.2-1.3-0.5-1.8-0.8
				c-0.5-0.4-0.8-0.7-1.1-1.2c-0.3-0.4-0.5-0.8-0.6-1.3c-0.1-0.4-0.2-0.8-0.3-1c-0.8-2.1-1.5-4.6-2.1-7.4c-0.6-2.8-1.2-5.6-1.7-8.5
				c-0.5-2.9-0.8-5.7-0.9-8.6c-0.2-2.8-0.1-5.4,0.2-7.6c0.3-2.3,0.8-4.2,1.6-5.7c0.8-1.6,1.9-2.5,3.3-2.8c1.5-0.4,2.6-0.2,3.4,0.4
				c0.8,0.7,1.3,1.6,1.6,2.7c0.3,1.1,0.4,2.4,0.4,3.8c0,1.4,0,2.6,0,3.6c0,3.1,0.1,7,0.2,11.8C238.5,185.7,239.3,191.5,240.7,198.3z
				 M237.9,143.5c1.4,0.9,2.2,2.1,2.4,3.5c0.2,1.4-0.1,2.7-0.8,3.8c-0.7,1.1-1.8,2-3.2,2.5c-1.4,0.5-3,0.4-4.8-0.5
				c-1.9-0.8-3-2.1-3.5-3.8c-0.4-1.7-0.3-3.1,0.4-4.5c0.7-1.3,1.8-2.2,3.5-2.7C233.5,141.4,235.5,141.9,237.9,143.5z"/>
			<path class="st9" d="M254.1,157.8c0.1-0.4,0.2-0.8,0.2-1.4c0-0.5,0.1-1.2,0.1-2.1c0.1-0.9,0.1-2.1,0.2-3.6
				c0.1-1.5,0.2-3.4,0.4-5.8c0.2-2.3,0.6-4.1,1.1-5.5c0.6-1.4,1.6-2.1,3.3-2.2c2.1-0.1,3.7,0.5,4.8,1.9c1.1,1.4,1.6,3.1,1.6,5.1
				c0,1.3,0,3-0.1,5c-0.1,2-0.2,4.6-0.3,7.8c0.3,0.3,0.5,0.5,0.8,0.5c0.3,0,0.6,0,0.8,0.1c1.6,0.4,2.5,1,2.7,1.9
				c0.2,0.8-0.1,1.5-0.7,1.9c-0.3,0.3-0.7,0.5-1.2,0.6c-0.5,0.1-0.9,0.2-1.4,0.3c-0.6,0.2-0.9,0.4-1.1,0.5c-0.1,0.1-0.2,0.5-0.2,1.2
				c0,1.9,0,4.2,0,6.7c0,2.5,0,5.1,0,7.7c0.1,2.7,0.2,5.3,0.4,8c0.2,2.7,0.5,5.2,0.9,7.4c0.4,2.3,1,4.3,1.7,6c0.7,1.8,1.6,3,2.7,3.8
				c0.5-0.3,0.8-0.6,1.2-1c0.3-0.4,0.6-1,0.9-1.7c0.3-0.7,0.6-1.6,0.9-2.7c0.3-1.1,0.7-2.5,1.3-4.1c0.3-0.9,0.7-1.5,1.3-1.9
				s1.2-0.5,1.9-0.4c0.6,0.1,1.2,0.3,1.6,0.7c0.5,0.4,0.7,0.9,0.7,1.5c0,0.3-0.1,0.8-0.2,1.5c-0.1,0.7-0.3,1.6-0.5,2.6
				c-0.2,1-0.5,2-0.9,3.2c-0.4,1.1-0.9,2.2-1.5,3.3c-1,2-2.4,3.3-4.2,3.8c-1.8,0.6-3.6,0.4-5.5-0.3c-1.9-0.8-3.8-2.2-5.6-4.4
				c-1.8-2.1-3.2-4.9-4.2-8.4c-0.5-1.6-1-3.6-1.5-6c-0.5-2.4-0.9-5-1.3-7.8c-0.4-2.8-0.7-5.6-0.9-8.5c-0.2-2.9-0.3-5.7-0.3-8.3
				c0-0.5,0-0.8-0.1-1.1c-0.1-0.3-0.3-0.4-0.6-0.4c-1.6-0.1-2.7-0.1-3.5-0.1s-1.6-0.2-2.5-0.7c-0.8-0.5-1.3-1.2-1.2-1.9
				c0-0.7,0.5-1.3,1.4-1.7c0.6-0.3,1.2-0.4,1.8-0.4c0.6,0,1.2,0,1.8,0s1.1,0,1.6,0C253.3,158,253.7,157.9,254.1,157.8z"/>
			<path class="st9" d="M290.4,145.2c1.9-2,4-2.9,6.3-2.8c2.2,0.2,4.3,1.1,6.1,2.7c1.8,1.6,3.2,3.8,4.2,6.6c1,2.8,1.2,5.7,0.5,8.9
				c-0.6,2.9-2.3,4.6-5.3,5.4c-1.5,0.4-2.7,0.6-3.6,0.6c-0.9,0-1.6,0-2.1,0c-0.5,0-0.9,0.1-1.1,0.2c-0.2,0.2-0.3,0.6-0.3,1.2
				c-0.1,3.6,0.1,7.1,0.6,10.5c0.5,3.4,1.1,6.5,1.9,9.3c0.8,2.8,1.6,5.3,2.5,7.4c0.9,2.1,1.7,3.6,2.4,4.5c0.5,0.6,0.9,0.6,1.4-0.1
				c0.8-1,1.5-2.3,2.1-3.7c0.6-1.4,1-2.9,1.4-4.3c0.4-1.5,0.7-2.8,0.9-4.1c0.3-1.3,0.5-2.3,0.7-3c0.2-0.7,0.6-1.2,1.3-1.5
				c0.6-0.3,1.3-0.3,2-0.2c0.7,0.1,1.3,0.4,1.8,0.8c0.5,0.4,0.7,1,0.5,1.8c-0.4,2.1-0.8,4.1-1.3,6.2c-0.5,2-1.1,4.1-1.9,6.1
				c-1.6,4-3.6,6.4-6.2,7.3c-2.6,0.9-5.2,0.5-7.8-1.1c-2.7-1.6-5.1-4.3-7.4-8.2c-2.3-3.8-3.9-8.5-4.9-13.9c-0.5-2.6-0.8-5.6-1-9
				c-0.2-3.4-0.1-6.8,0.2-10.2c0.3-3.4,1-6.6,1.9-9.6C287.1,149.7,288.5,147.2,290.4,145.2z M298.2,148.6c-0.6,0.8-1.1,1.8-1.4,2.8
				c-0.4,1-0.6,2.1-0.8,3.2c-0.2,1.1-0.3,2.2-0.4,3.3c-0.1,1.1-0.2,2.1-0.2,3.1c-0.1,0.5,0.1,0.8,0.8,0.8c2.3,0.1,3.8,0.1,4.4-0.1
				c0.6-0.2,1-0.6,1.2-1.2c0.5-1.4,0.6-2.9,0.4-4.4c-0.2-1.5-0.5-2.9-1-4.1c-0.5-1.2-1-2.2-1.6-2.8
				C298.9,148.5,298.5,148.3,298.2,148.6z"/>
		</g>
		<g>
			<path class="st9" d="M157.6,361.5c0.9-1.1,1.7-2.5,2.2-4.3c0.6-1.8,1.1-3.6,1.4-5.6c0.4-2,0.6-4,0.8-5.9c0.2-2,0.3-3.8,0.4-5.3
				c0.1-0.9,0.6-1.6,1.4-2.1c0.8-0.5,1.7-0.6,2.6-0.3c0.8,0.3,1.3,0.8,1.4,1.6c0.1,0.7,0.1,2,0,3.9c-0.2,3.2-0.6,6.6-1.1,10
				c-0.6,3.4-1.7,6.5-3.4,9.3c-0.9,1.6-2,2.7-3.4,3.5c-1.4,0.8-2.8,1.1-4.4,1c-1.6-0.1-3.2-0.7-4.9-1.8c-1.7-1.1-3.3-2.7-4.9-4.8
				c-2-2.8-3.6-5.9-4.9-9.3c-1.2-3.4-2.1-6.9-2.6-10.5c-0.5-3.6-0.7-7.2-0.5-10.8c0.2-3.6,0.6-7,1.4-10.2c0.8-3.2,1.9-6.2,3.3-8.8
				c1.4-2.7,3-4.9,4.9-6.6c2.2-2,4.5-3.1,7-3.4c2.4-0.2,4.7,0.2,6.7,1.4c2,1.1,3.7,2.9,5,5.3c1.3,2.4,2,5.1,2,8.2
				c0,1-0.2,1.8-0.6,2.3c-0.4,0.6-0.9,1-1.5,1.2c-0.6,0.2-1.2,0.3-1.9,0.2c-0.6-0.1-1.2-0.4-1.7-0.8c-0.3-0.3-0.5-0.7-0.5-1
				c0-0.4,0-0.8,0-1.4c0-0.6,0-1.2-0.1-2c-0.1-0.8-0.3-1.8-0.7-2.9c-0.8-2.7-1.8-4.2-2.9-4.6c-1.1-0.4-2.1-0.2-3.1,0.8
				c-1,0.9-1.9,2.3-2.8,4.2c-0.9,1.9-1.5,3.7-1.9,5.6c-0.8,3.8-1.3,7.6-1.4,11.4c-0.1,3.8,0.1,7.4,0.5,10.9c0.4,3.4,1,6.6,1.7,9.4
				c0.7,2.9,1.5,5.3,2.4,7.3c0.8,2,1.6,3.4,2.4,4.4C156.7,361.7,157.2,361.9,157.6,361.5z"/>
			<path class="st9" d="M201.2,360.1c-1.9,3.1-4.7,4.6-8.4,4.6c-2.9,0.1-5.3-0.7-7.1-2.2c-1.8-1.6-3.4-3.6-4.7-6.1
				c-2.9-5.5-4.9-11.3-6-17.5c-1.1-6.2-1.7-12.4-1.6-18.5c0-3,0-5.8,0-8.5c0-2.7,0.1-5,0.4-6.9s0.8-3.5,1.5-4.5
				c0.7-1.1,1.8-1.5,3.3-1.3c1.7,0.3,2.9,0.9,3.6,2c0.7,1.1,1.2,2.5,1.5,4.2c0.1,1.1,0.2,2.8,0.3,5.2c0.1,2.4,0.2,5.1,0.3,8.2
				c0.1,3.1,0.3,6.4,0.5,10c0.2,3.5,0.6,7,1.1,10.5c0.5,3.4,1.1,6.7,1.9,9.8c0.8,3.1,1.8,5.8,3,8c0.5,0.8,1,1.5,1.4,2
				c0.4,0.5,1,0.6,1.7,0.1c1.4-1,2.6-2.9,3.6-5.9c1-3,1.8-6.4,2.5-10.3c0.7-3.9,1.2-8.1,1.6-12.5c0.4-4.4,0.7-8.7,0.9-12.6
				c0.2-4,0.4-7.5,0.4-10.6c0.1-3.1,0.1-5.2,0.2-6.4c0-0.6,0.3-1.2,0.9-1.5c0.6-0.4,1.2-0.5,2-0.5c0.7,0,1.4,0.3,2.1,0.7
				c0.6,0.5,1,1.2,1.2,2.2c0.1,0.5,0.1,1.1,0.1,1.6c0,0.6,0,1.1,0,1.6c-0.1,2.2-0.1,4.9-0.2,7.9c-0.1,3.1-0.2,6.3-0.4,9.8
				c-0.2,3.4-0.5,7-0.9,10.6c-0.4,3.6-0.9,7.1-1.5,10.4c-0.6,3.3-1.4,6.4-2.2,9.2C203.4,356,202.4,358.3,201.2,360.1z"/>
			<path class="st9" d="M222.9,316.3c0.1-0.4,0.2-0.8,0.2-1.4c0-0.5,0.1-1.2,0.1-2.1c0.1-0.9,0.1-2.1,0.2-3.6
				c0.1-1.5,0.2-3.4,0.4-5.8c0.2-2.3,0.6-4.1,1.1-5.5c0.6-1.4,1.6-2.1,3.3-2.2c2.1-0.1,3.7,0.5,4.8,1.9c1.1,1.4,1.6,3.1,1.6,5.1
				c0,1.3,0,3-0.1,5c-0.1,2-0.2,4.6-0.3,7.8c0.3,0.3,0.5,0.5,0.8,0.5c0.3,0,0.6,0,0.8,0.1c1.6,0.4,2.5,1,2.7,1.9
				c0.2,0.8-0.1,1.5-0.7,1.9c-0.3,0.3-0.7,0.5-1.2,0.6c-0.5,0.1-0.9,0.2-1.4,0.3c-0.6,0.2-0.9,0.4-1.1,0.5c-0.1,0.1-0.2,0.5-0.2,1.2
				c0,1.9,0,4.2,0,6.7c0,2.5,0,5.1,0,7.7c0.1,2.7,0.2,5.3,0.4,8c0.2,2.7,0.5,5.2,0.9,7.4c0.4,2.3,1,4.3,1.7,6c0.7,1.8,1.6,3,2.7,3.8
				c0.5-0.3,0.8-0.6,1.2-1c0.3-0.4,0.6-1,0.9-1.7c0.3-0.7,0.6-1.6,0.9-2.7c0.3-1.1,0.7-2.5,1.3-4.1c0.3-0.9,0.7-1.5,1.3-1.9
				c0.6-0.4,1.2-0.5,1.9-0.4c0.6,0.1,1.2,0.3,1.6,0.7c0.5,0.4,0.7,0.9,0.7,1.5c0,0.3-0.1,0.8-0.2,1.5s-0.3,1.6-0.5,2.6
				c-0.2,1-0.5,2-0.9,3.2c-0.4,1.1-0.9,2.2-1.5,3.3c-1,2-2.4,3.3-4.2,3.8c-1.8,0.6-3.6,0.4-5.5-0.3c-1.9-0.8-3.8-2.2-5.6-4.4
				c-1.8-2.1-3.2-4.9-4.2-8.4c-0.5-1.6-1-3.6-1.5-6c-0.5-2.4-0.9-5-1.3-7.8c-0.4-2.8-0.7-5.6-0.9-8.5c-0.2-2.9-0.3-5.7-0.3-8.3
				c0-0.5,0-0.8-0.1-1.1c-0.1-0.3-0.3-0.4-0.6-0.4c-1.6-0.1-2.7-0.1-3.5-0.1s-1.6-0.2-2.5-0.7c-0.8-0.5-1.3-1.2-1.2-1.9
				c0-0.7,0.5-1.3,1.4-1.7c0.6-0.3,1.2-0.4,1.8-0.4c0.6,0,1.2,0,1.8,0s1.1,0,1.6,0C222,316.5,222.5,316.4,222.9,316.3z"/>
			<path class="st9" d="M259.1,303.7c1.9-2,4-2.9,6.3-2.8c2.2,0.2,4.3,1.1,6.1,2.7c1.8,1.6,3.2,3.8,4.2,6.6c1,2.8,1.2,5.7,0.5,8.9
				c-0.6,2.9-2.3,4.6-5.3,5.4c-1.5,0.4-2.7,0.6-3.6,0.6c-0.9,0-1.6,0-2.1,0c-0.5,0-0.9,0.1-1.1,0.2c-0.2,0.2-0.3,0.6-0.3,1.2
				c-0.1,3.6,0.1,7.1,0.6,10.5c0.5,3.4,1.1,6.5,1.9,9.3c0.8,2.8,1.6,5.3,2.5,7.4c0.9,2.1,1.7,3.6,2.4,4.5c0.5,0.6,0.9,0.6,1.4-0.1
				c0.8-1,1.5-2.3,2.1-3.7c0.6-1.4,1-2.9,1.4-4.3c0.4-1.5,0.7-2.8,0.9-4.1c0.3-1.3,0.5-2.3,0.7-3c0.2-0.7,0.6-1.2,1.3-1.5
				c0.6-0.3,1.3-0.3,2-0.2c0.7,0.1,1.3,0.4,1.8,0.8c0.5,0.4,0.7,1,0.5,1.8c-0.4,2.1-0.8,4.1-1.3,6.2c-0.5,2-1.1,4.1-1.9,6.1
				c-1.6,4-3.6,6.4-6.2,7.3c-2.6,0.9-5.2,0.5-7.8-1.1c-2.7-1.6-5.1-4.3-7.4-8.2c-2.3-3.8-3.9-8.5-4.9-13.9c-0.5-2.6-0.8-5.6-1-9
				c-0.2-3.4-0.1-6.8,0.2-10.2c0.3-3.4,1-6.6,1.9-9.6C255.8,308.2,257.2,305.7,259.1,303.7z M267,307.1c-0.6,0.8-1.1,1.8-1.4,2.8
				c-0.4,1-0.6,2.1-0.8,3.2c-0.2,1.1-0.3,2.2-0.4,3.3c-0.1,1.1-0.2,2.1-0.2,3.1c-0.1,0.5,0.1,0.8,0.8,0.8c2.3,0.1,3.8,0.1,4.4-0.1
				c0.6-0.2,1-0.6,1.2-1.2c0.5-1.4,0.6-2.9,0.4-4.4c-0.2-1.5-0.5-2.9-1-4.1c-0.5-1.2-1-2.2-1.6-2.8C267.7,307,267.3,306.8,267,307.1
				z"/>
		</g>
		<g>
			<path class="st9" d="M227.6,273.8c0.4,0.4,1,0.8,1.6,1.3c0.6,0.5,1.1,1,1.5,1.6c0.4,0.6,0.6,1.1,0.7,1.8c0.1,0.6-0.2,1.2-0.8,1.8
				c-0.6,0.6-1.5,1-2.6,1c-1.1,0.1-2.1-0.3-3.1-1.1c-0.6-0.4-1.2-0.9-1.7-1.3c-0.5-0.4-1-0.8-1.3-1.1c-0.4-0.4-0.9-0.8-1.3-1.1
				c-2.8,2.5-5.5,3.9-8,4.5c-2.5,0.5-4.8,0.4-6.8-0.4c-2-0.8-3.6-2-4.8-3.7c-1.2-1.7-2-3.7-2.2-5.8c-0.2-2.2,0-4.1,0.5-5.8
				c0.6-1.7,1.3-3.2,2.1-4.4c0.8-1.2,1.6-2.2,2.4-2.9c0.8-0.7,1.2-1.1,1.2-1.3c0-0.1,0-0.1-0.1-0.3c-0.1-0.1-0.1-0.2-0.2-0.3
				c-2.5-5.2-3.9-9.8-4.2-13.9c-0.4-4.1,0-7.7,1-10.6c1-3,2.6-5.3,4.7-7.1c2.1-1.8,4.4-2.8,6.9-3.2c2.5-0.4,4.9-0.1,7.4,1
				c2.5,1,4.6,2.9,6.4,5.5c1.1,1.6,1.8,3.4,2.3,5.5c0.5,2.1,0.5,4.3,0,6.6c-0.5,2.3-1.6,4.7-3.3,7.1c-1.7,2.4-4.1,4.8-7.4,7.1
				c-0.4,0.3-0.9,0.6-1.6,1.1c-0.6,0.4-1.3,0.9-1.8,1.3c-0.6,0.4-1.1,0.9-1.6,1.2c-0.4,0.4-0.7,0.6-0.8,0.7c1,1.3,1.8,2.4,2.7,3.4
				c0.7,1,1.5,1.8,2.2,2.7c0.8,0.8,1.4,1.5,1.8,1.8c0.2-0.4,0.3-0.7,0.5-1c0.2-0.3,0.3-0.6,0.5-0.9c0.4-0.7,0.9-1.2,1.6-1.5
				c0.7-0.3,1.4-0.3,2-0.1c0.6,0.2,1.2,0.5,1.6,1c0.4,0.5,0.6,1.1,0.5,1.8c-0.3,1.7-0.6,2.9-1,3.5c-0.4,0.6-0.6,1.1-0.8,1.4
				c-0.1,0.3,0,0.6,0.4,1C225.4,271.9,226.3,272.6,227.6,273.8z M208.6,262.4c-1.5,1.5-2.4,3.1-2.7,4.7c-0.3,1.7-0.3,3.2,0,4.5
				c0.3,1.3,0.9,2.4,1.8,3.3c0.9,0.8,1.8,1.2,2.8,1.2c1.3-0.1,2.5-0.6,3.7-1.5c1.1-0.9,1.9-1.7,2.3-2.3c0-0.1-0.1-0.3-0.4-0.6
				c-0.3-0.3-0.5-0.6-0.8-0.8c-2.1-2.4-3.7-4.3-4.7-5.8C209.6,263.6,208.9,262.7,208.6,262.4z M209.6,252.6c0.3-0.2,0.8-0.6,1.3-1
				c0.5-0.4,1.1-0.9,1.6-1.4c0.5-0.5,1.1-1,1.6-1.5c0.5-0.5,1-0.9,1.3-1.2c1.9-1.9,3.3-3.9,4.2-5.9s1.4-4,1.6-5.9
				c0.1-1.9-0.1-3.6-0.7-5.1c-0.6-1.5-1.3-2.6-2.4-3.4c-1-0.8-2.2-1-3.7-0.8c-1.4,0.2-2.9,1.1-4.5,2.7c-1.6,1.6-2.7,3.5-3.2,5.8
				c-0.5,2.2-0.7,4.4-0.5,6.7c0.2,2.2,0.6,4.4,1.3,6.3C208.3,249.9,209,251.5,209.6,252.6z"/>
		</g>
	</g>
	<g>
		<g>
			<g>
				<path class="st6" d="M99.6,266.2c0.4-0.4,0.2-1.2-0.4-1.2l-10.1-1.5c-0.2,0-0.4-0.2-0.5-0.4l-4.5-9.2c-0.3-0.5-1-0.5-1.3,0
					l-4.6,9.1c-0.1,0.2-0.3,0.4-0.6,0.4l-10.1,1.4c-0.6,0.1-0.8,0.8-0.4,1.2l7.3,7.2c0.2,0.2,0.2,0.4,0.2,0.6L72.8,284
					c-0.1,0.6,0.5,1.1,1.1,0.8l9.1-4.7c0.2-0.1,0.5-0.1,0.7,0l9,4.8c0.5,0.3,1.2-0.2,1.1-0.8L92,274c0-0.2,0-0.5,0.2-0.6L99.6,266.2
					z"/>
				<path class="st6" d="M362.7,266.2c0.4-0.4,0.2-1.2-0.4-1.2l-10.1-1.5c-0.2,0-0.4-0.2-0.5-0.4l-4.5-9.2c-0.3-0.5-1-0.5-1.3,0
					l-4.6,9.1c-0.1,0.2-0.3,0.4-0.6,0.4l-10.1,1.4c-0.6,0.1-0.8,0.8-0.4,1.2l7.3,7.2c0.2,0.2,0.2,0.4,0.2,0.6l-1.8,10.1
					c-0.1,0.6,0.5,1.1,1.1,0.8l9.1-4.7c0.2-0.1,0.5-0.1,0.7,0l9,4.8c0.5,0.3,1.2-0.2,1.1-0.8l-1.7-10.1c0-0.2,0-0.5,0.2-0.6
					L362.7,266.2z"/>
			</g>
			<g>
				<path class="st2" d="M188.8,233l-20.1,2.6c-0.5,0.1-0.9-0.1-1.3-0.5L153.9,220c-0.8-0.9-2.3-0.5-2.5,0.7l-3.8,19.9
					c-0.1,0.5-0.4,0.9-0.8,1.1l-18.5,8.2c-1.1,0.5-1.2,2-0.1,2.6l17.8,9.7c0.4,0.2,0.7,0.6,0.7,1.1l2.1,20.2
					c0.1,1.2,1.6,1.7,2.4,0.9l14.7-13.9c0.3-0.3,0.8-0.5,1.3-0.4l19.8,4.3c1.2,0.3,2.1-0.9,1.6-2L180,254c-0.2-0.4-0.2-0.9,0.1-1.3
					l10.2-17.5C190.8,234.1,190,232.8,188.8,233z"/>
				<path class="st2" d="M239.1,233l20.1,2.6c0.5,0.1,0.9-0.1,1.3-0.5L274,220c0.8-0.9,2.3-0.5,2.5,0.7l3.8,19.9
					c0.1,0.5,0.4,0.9,0.8,1.1l18.5,8.2c1.1,0.5,1.2,2,0.1,2.6l-17.8,9.7c-0.4,0.2-0.7,0.6-0.7,1.1l-2.1,20.2
					c-0.1,1.2-1.6,1.7-2.4,0.9L262,270.4c-0.3-0.3-0.8-0.5-1.3-0.4l-19.8,4.3c-1.2,0.3-2.1-0.9-1.6-2l8.7-18.3
					c0.2-0.4,0.2-0.9-0.1-1.3l-10.2-17.5C237,234.1,237.9,232.8,239.1,233z"/>
			</g>
			<g>
				<path class="st4" d="M109.5,253.6l0.1-4.9c0-0.1,0.1-0.2,0.2-0.3l4-2.7c0.2-0.2,0.2-0.5-0.1-0.6l-4.6-1.6
					c-0.1,0-0.2-0.1-0.2-0.2l-1.3-4.7c-0.1-0.3-0.4-0.3-0.6-0.1l-2.9,3.9c-0.1,0.1-0.2,0.1-0.3,0.1l-4.9-0.2c-0.3,0-0.5,0.3-0.3,0.5
					l2.8,4c0.1,0.1,0.1,0.2,0,0.3l-1.7,4.6c-0.1,0.3,0.2,0.5,0.4,0.5l4.6-1.4c0.1,0,0.2,0,0.3,0.1l3.8,3
					C109.1,254.1,109.5,253.9,109.5,253.6z"/>
				<path class="st4" d="M318.4,253.6l-0.1-4.9c0-0.1-0.1-0.2-0.2-0.3l-4-2.7c-0.2-0.2-0.2-0.5,0.1-0.6l4.6-1.6
					c0.1,0,0.2-0.1,0.2-0.2l1.3-4.7c0.1-0.3,0.4-0.3,0.6-0.1l2.9,3.9c0.1,0.1,0.2,0.1,0.3,0.1l4.9-0.2c0.3,0,0.5,0.3,0.3,0.5l-2.8,4
					c-0.1,0.1-0.1,0.2,0,0.3l1.7,4.6c0.1,0.3-0.2,0.5-0.4,0.5l-4.6-1.4c-0.1,0-0.2,0-0.3,0.1l-3.8,3
					C318.8,254.1,318.4,253.9,318.4,253.6z"/>
			</g>
			<g>
				<path class="st2" d="M138.3,228.7l-4.2-5.5c-0.1-0.1-0.1-0.3-0.1-0.5l2.1-6.6c0.1-0.4-0.2-0.8-0.6-0.6l-6.5,2.3
					c-0.2,0.1-0.3,0-0.5-0.1l-5.6-4c-0.3-0.2-0.8,0-0.8,0.4l0.2,6.9c0,0.2-0.1,0.3-0.2,0.4l-5.6,4.1c-0.3,0.2-0.2,0.8,0.2,0.9l6.6,2
					c0.2,0,0.3,0.2,0.3,0.3l2.1,6.6c0.1,0.4,0.6,0.5,0.9,0.1l3.9-5.7c0.1-0.1,0.2-0.2,0.4-0.2l6.9,0
					C138.3,229.5,138.6,229,138.3,228.7z"/>
				<path class="st2" d="M138.3,293.5l-6.7-8.8c-0.2-0.2-0.2-0.5-0.1-0.7l3.4-10.5c0.2-0.6-0.4-1.2-1-1l-10.4,3.7
					c-0.2,0.1-0.5,0-0.7-0.1l-8.9-6.5c-0.5-0.4-1.3,0-1.3,0.7l0.3,11c0,0.3-0.1,0.5-0.3,0.7l-8.9,6.5c-0.5,0.4-0.4,1.2,0.2,1.4
					l10.6,3.1c0.2,0.1,0.4,0.3,0.5,0.5l3.4,10.5c0.2,0.6,1,0.7,1.4,0.2l6.2-9.1c0.1-0.2,0.4-0.3,0.6-0.3l11,0
					C138.3,294.7,138.7,294,138.3,293.5z"/>
				<path class="st2" d="M289.6,228.7l4.2-5.5c0.1-0.1,0.1-0.3,0.1-0.5l-2.1-6.6c-0.1-0.4,0.2-0.8,0.6-0.6l6.5,2.3
					c0.2,0.1,0.3,0,0.5-0.1l5.6-4c0.3-0.2,0.8,0,0.8,0.4l-0.2,6.9c0,0.2,0.1,0.3,0.2,0.4l5.6,4.1c0.3,0.2,0.2,0.8-0.2,0.9l-6.6,2
					c-0.2,0-0.3,0.2-0.3,0.3l-2.1,6.6c-0.1,0.4-0.6,0.5-0.9,0.1l-3.9-5.7c-0.1-0.1-0.2-0.2-0.4-0.2l-6.9,0
					C289.5,229.5,289.3,229,289.6,228.7z"/>
				<path class="st2" d="M289.6,293.5l6.7-8.8c0.2-0.2,0.2-0.5,0.1-0.7l-3.4-10.5c-0.2-0.6,0.4-1.2,1-1l10.4,3.7
					c0.2,0.1,0.5,0,0.7-0.1l8.9-6.5c0.5-0.4,1.3,0,1.3,0.7l-0.3,11c0,0.3,0.1,0.5,0.3,0.7l8.9,6.5c0.5,0.4,0.4,1.2-0.2,1.4
					l-10.6,3.1c-0.2,0.1-0.4,0.3-0.5,0.5l-3.4,10.5c-0.2,0.6-1,0.7-1.4,0.2l-6.2-9.1c-0.1-0.2-0.4-0.3-0.6-0.3l-11,0
					C289.6,294.7,289.2,294,289.6,293.5z"/>
			</g>
		</g>
		<g>
			<g>
				<path class="st6" d="M323,335.4c-10.1-0.5-20.2-1.1-30.3-1.6c-0.6,0-1.1-0.1-1.7-0.3c-1-0.3-1.5-1-1.5-1.9c0-1,0.7-1.7,1.8-1.9
					c0.4-0.1,0.9-0.1,1.3,0c9.1,0.3,18.2,0.7,27.3,1c6.6,0.3,13.1,0.6,19.7,0.9c0.8,0,1.7,0,2.5,0.2c1.2,0.3,1.9,1.2,1.8,2.3
					c-0.1,1.1-0.9,2-2.1,2c-1.3,0.1-2.5,0-3.8-0.1C332.9,335.8,328,335.6,323,335.4C323,335.4,323,335.4,323,335.4z"/>
				<path class="st6" d="M291.7,339.1c0.4,0.1,1,0.2,1.5,0.4c10.1,3,20.2,6.1,30.3,9.2c0.5,0.2,1.1,0.3,1.6,0.6
					c1,0.6,1.4,1.5,1.1,2.6c-0.3,1.1-1.3,1.7-2.5,1.6c-0.4-0.1-0.9-0.2-1.3-0.3c-10.1-3.2-20.3-6.4-30.4-9.6
					c-0.5-0.2-1.1-0.4-1.6-0.7c-0.8-0.5-1.1-1.2-0.9-2.1C289.7,339.8,290.5,339.2,291.7,339.1z"/>
				<path class="st6" d="M291.7,324.6c0.4-0.1,1-0.2,1.5-0.4c10.1-3,20.2-6.1,30.3-9.2c0.5-0.2,1.1-0.3,1.6-0.6
					c1-0.6,1.4-1.5,1.1-2.6c-0.3-1.1-1.3-1.7-2.5-1.6c-0.4,0.1-0.9,0.2-1.3,0.3c-10.1,3.2-20.3,6.4-30.4,9.6
					c-0.5,0.2-1.1,0.4-1.6,0.7c-0.8,0.5-1.1,1.2-0.9,2.1C289.7,323.9,290.5,324.5,291.7,324.6z"/>
			</g>
			<g>
				<path class="st6" d="M96.8,335.4c10.1-0.5,20.2-1.1,30.3-1.6c0.6,0,1.1-0.1,1.7-0.3c1-0.3,1.5-1,1.5-1.9c0-1-0.7-1.7-1.8-1.9
					c-0.4-0.1-0.9-0.1-1.3,0c-9.1,0.3-18.2,0.7-27.3,1c-6.6,0.3-13.1,0.6-19.7,0.9c-0.8,0-1.7,0-2.5,0.2c-1.2,0.3-1.9,1.2-1.8,2.3
					c0.1,1.1,0.9,2,2.1,2c1.3,0.1,2.5,0,3.8-0.1C86.9,335.8,91.9,335.6,96.8,335.4C96.8,335.4,96.8,335.4,96.8,335.4z"/>
				<path class="st6" d="M128.2,339.1c-0.4,0.1-1,0.2-1.5,0.4c-10.1,3-20.2,6.1-30.3,9.2c-0.5,0.2-1.1,0.3-1.6,0.6
					c-1,0.6-1.4,1.5-1.1,2.6c0.3,1.1,1.3,1.7,2.5,1.6c0.4-0.1,0.9-0.2,1.3-0.3c10.1-3.2,20.3-6.4,30.4-9.6c0.5-0.2,1.1-0.4,1.6-0.7
					c0.8-0.5,1.1-1.2,0.9-2.1C130.1,339.8,129.3,339.2,128.2,339.1z"/>
				<path class="st6" d="M128.2,324.6c-0.4-0.1-1-0.2-1.5-0.4c-10.1-3-20.2-6.1-30.3-9.2c-0.5-0.2-1.1-0.3-1.6-0.6
					c-1-0.6-1.4-1.5-1.1-2.6c0.3-1.1,1.3-1.7,2.5-1.6c0.4,0.1,0.9,0.2,1.3,0.3c10.1,3.2,20.3,6.4,30.4,9.6c0.5,0.2,1.1,0.4,1.6,0.7
					c0.8,0.5,1.1,1.2,0.9,2.1C130.1,323.9,129.3,324.5,128.2,324.6z"/>
			</g>
		</g>
		<g>
			<g>
				<g>
					<path class="st4" d="M146,112.3c-21,0.2-41.4,7.3-62.5,5.8c-3.1-0.2-3.1,4.6,0,4.8c21.1,1.5,41.5-5.6,62.5-5.8
						C149.1,117.1,149.1,112.3,146,112.3L146,112.3z"/>
				</g>
				<g>
					<path class="st5" d="M144.4,94.8c-21.1,1.7-42.3,9.9-63.4,4.4c-3-0.8-4.3,3.9-1.3,4.7c21.7,5.6,43.1-2.5,64.7-4.3
						C147.5,99.4,147.5,94.5,144.4,94.8L144.4,94.8z"/>
				</g>
				<g>
					<path class="st6" d="M142,80c-16,4.6-32.4,5.9-48.8,3.8c-3.1-0.4-3.1,4.5,0,4.8c16.9,2.1,33.8,0.8,50.1-4
						C146.3,83.8,145.1,79.2,142,80L142,80z"/>
				</g>
			</g>
			<g>
				<g>
					<path class="st4" d="M282,117.2c21,0.2,41.4,7.3,62.5,5.8c3.1-0.2,3.1-5.1,0-4.8c-21.1,1.5-41.5-5.6-62.5-5.8
						C278.9,112.3,278.9,117.1,282,117.2L282,117.2z"/>
				</g>
				<g>
					<path class="st5" d="M283.6,99.6c21.6,1.8,43,9.9,64.7,4.3c3-0.8,1.7-5.5-1.3-4.7c-21.1,5.5-42.3-2.7-63.4-4.4
						C280.5,94.5,280.5,99.4,283.6,99.6L283.6,99.6z"/>
				</g>
				<g>
					<path class="st6" d="M284.7,84.7c16.3,4.7,33.3,6.1,50.1,4c3.1-0.4,3.1-5.2,0-4.8c-16.5,2.1-32.9,0.8-48.8-3.8
						C283,79.2,281.7,83.8,284.7,84.7L284.7,84.7z"/>
				</g>
			</g>
		</g>
		<g>
			<path class="st2" d="M87.6,158.4c0.5-0.7,0.9-1.2,1.2-1.7c3.5-4.5,9.8-5.4,14.4-2c3.8,2.8,3.9,7.6,0.1,10.4
				c-3,2.2-6.4,2.8-10,1.9c-0.5-0.1-1-0.2-1.5-0.4c0,0-0.1,0-0.4,0.2c0.6,1.2,1.1,2.4,1.9,3.5c2.3,3.2,4.7,6.3,7.1,9.4
				c3,3.9,6,7.8,8.2,12.2c2.4,4.8,3.8,9.9,3.5,15.4c-0.1,1.3-0.3,2.6-0.6,3.9c-1.5,6.9-6.9,10.3-13.5,9.8c-1.4-0.1-2.2,0.2-3,1.3
				c-1.4,1.8-3.1,3.3-5,4.4c-2.5,1.4-5.1,2.1-8,2c-4-0.1-7.6-1.2-11-3.4c-2.1-1.4-3.8-3.2-4.7-5.6c-1.9-4.7,1.2-9.8,6.3-10.3
				c2.9-0.3,6.8,2.3,7.7,5.2c0.1,0.4,0.2,0.8,0.2,1.2c0,1.1-0.6,2-1.6,2.2c-1,0.2-1.9-0.2-2.3-1.3c-0.3-1.1-1-1.9-1.9-2.6
				c-2-1.4-4.8,0.4-4.8,2.5c0,0.7,0.2,1.4,0.4,2c0.6,1.5,1.7,2.6,3.1,3.4c2.9,1.8,6,2.7,9.4,2.6c3.9-0.1,6.7-2.1,9.2-5.1
				c-0.5-0.4-1.1-0.6-1.5-1c-1.1-1-2.3-2.1-3.4-3.2c-1.3-1.4-1.5-3.2-1.5-5c0.1-2.8,2-5.2,4.8-5.9c2.7-0.7,5.3,0.4,6.9,2.8
				c1.2,1.8,1.5,3.8,1.3,6c-0.1,1.2-0.4,2.4-0.5,3.6c3.6,0.9,7.4-1.2,8.8-4.7c1.1-2.8,1.2-5.7,0.9-8.7c-0.6-5.2-2.7-9.8-5.6-14
				c-3.1-4.3-6.4-8.5-9.6-12.7c-2-2.7-4-5.4-5.2-8.6c-0.2-0.6-0.6-1.3-0.6-2c0-2.3-1.4-3.9-2.7-5.6c-3.7-4.9-5.7-10.4-4.7-16.7
				c0.2-1.3,0.6-2.8,1.3-3.9c2.4-3.7,5.6-6.5,10-7.5c4.5-1,8.6,0.1,12.1,3.2c2.3,2.2,3.3,4.8,2.3,8c-1,3.1-4.3,5.1-7.5,4.6
				c-2.4-0.3-3.9-1.9-4.8-4.1c-0.4-1,0-2,0.8-2.4c0.8-0.4,1.7-0.1,2.4,0.8c0.1,0.1,0.2,0.3,0.3,0.4c1,1.5,2,1.8,3.5,1.1
				c1.3-0.7,2.1-2.3,1.4-3.7c-0.4-0.9-1.1-1.8-1.9-2.4c-3-2.4-7.4-2.5-10.6-0.4c-1.3,0.9-2.5,2-3.6,3.2c-0.7,0.8-1.3,1.8-1.5,2.9
				C82.3,149.2,84.3,153.9,87.6,158.4z M91,161.4c1.2,0.9,2.5,1.5,4,1.7c2.2,0.4,4.2-0.1,6-1.5c1.3-1,1.3-2.3,0.1-3.4
				c-0.3-0.3-0.7-0.6-1.1-0.8C97,155.9,92.6,156.6,91,161.4z M94.3,215.8c0.2-1.6,0.4-2.9,0.4-4.1c0-0.9-0.4-1.8-0.9-2.5
				c-0.7-1-1.8-1.1-2.9-0.4c-1.1,0.8-1.4,2.2-0.6,3.7C91.1,213.9,92.4,214.9,94.3,215.8z"/>
			<path class="st2" d="M348.4,143.6c-0.2-1-0.8-2.1-1.5-2.9c-1.1-1.2-2.3-2.3-3.6-3.2c-3.2-2.1-7.6-2-10.6,0.4
				c-0.8,0.6-1.5,1.5-1.9,2.4c-0.6,1.4,0.1,3,1.4,3.7c1.5,0.8,2.5,0.5,3.5-1.1c0.1-0.1,0.2-0.3,0.3-0.4c0.7-0.9,1.6-1.2,2.4-0.8
				c0.8,0.4,1.2,1.4,0.8,2.4c-0.9,2.1-2.4,3.7-4.8,4.1c-3.2,0.5-6.5-1.5-7.5-4.6c-1.1-3.2-0.1-5.9,2.3-8c3.4-3.2,7.5-4.2,12.1-3.2
				c4.4,1,7.6,3.8,10,7.5c0.7,1.1,1.1,2.6,1.3,3.9c1,6.3-1,11.7-4.7,16.7c-1.3,1.7-2.7,3.3-2.7,5.6c0,0.7-0.4,1.3-0.6,2
				c-1.2,3.2-3.1,5.9-5.2,8.6c-3.2,4.2-6.5,8.4-9.6,12.7c-3,4.2-5,8.9-5.6,14c-0.4,3-0.2,5.9,0.9,8.7c1.4,3.6,5.2,5.6,8.8,4.7
				c-0.2-1.2-0.4-2.4-0.5-3.6c-0.2-2.1,0.2-4.1,1.3-6c1.6-2.4,4.2-3.5,6.9-2.8c2.8,0.7,4.7,3.1,4.8,5.9c0.1,1.8-0.2,3.6-1.5,5
				c-1,1.1-2.2,2.2-3.4,3.2c-0.4,0.4-0.9,0.6-1.5,1c2.5,3,5.3,5.1,9.2,5.1c3.4,0.1,6.5-0.8,9.4-2.6c1.4-0.8,2.5-1.9,3.1-3.4
				c0.3-0.6,0.4-1.3,0.4-2c0-2.2-2.8-3.9-4.8-2.5c-0.9,0.7-1.6,1.4-1.9,2.6c-0.3,1.1-1.3,1.6-2.3,1.3c-1-0.2-1.6-1.1-1.6-2.2
				c0-0.4,0.1-0.8,0.2-1.2c0.9-2.9,4.8-5.5,7.7-5.2c5.1,0.5,8.2,5.6,6.3,10.3c-1,2.4-2.6,4.2-4.7,5.6c-3.3,2.1-7,3.2-11,3.4
				c-2.8,0.1-5.5-0.5-8-2c-2-1.1-3.7-2.7-5-4.4c-0.8-1.1-1.6-1.4-3-1.3c-6.6,0.5-12-2.9-13.5-9.8c-0.3-1.3-0.5-2.6-0.6-3.9
				c-0.3-5.4,1.1-10.5,3.5-15.4c2.2-4.4,5.1-8.3,8.2-12.2c2.4-3.1,4.8-6.2,7.1-9.4c0.8-1,1.3-2.3,1.9-3.5c-0.3-0.1-0.3-0.2-0.4-0.2
				c-0.5,0.1-1,0.2-1.5,0.4c-3.6,0.9-7,0.3-10-1.9c-3.8-2.8-3.7-7.5,0.1-10.4c4.6-3.4,10.9-2.5,14.4,2c0.4,0.5,0.7,1,1.2,1.7
				C347.7,153.9,349.7,149.2,348.4,143.6z M332,157.5c-0.4,0.2-0.8,0.5-1.1,0.8c-1.2,1.1-1.1,2.4,0.1,3.4c1.8,1.4,3.8,1.8,6,1.5
				c1.4-0.2,2.7-0.8,4-1.7C339.4,156.6,335,155.9,332,157.5z M341.7,212.4c0.8-1.5,0.5-2.9-0.6-3.7c-1-0.7-2.2-0.6-2.9,0.4
				c-0.5,0.7-0.9,1.7-0.9,2.5c-0.1,1.3,0.2,2.6,0.4,4.1C339.6,214.9,340.9,213.9,341.7,212.4z"/>
		</g>
	</g>
</g>
</svg>
