<!-- Generated by IcoMoon.io -->
<svg version="1.1" xmlns="http://www.w3.org/2000/svg" width="27" height="32" viewBox="0 0 27 32">
<title>pinterest-rounded</title>
<path d="M19.871 3.98q1.348 0 2.538 0.518t2.084 1.41 1.41 2.084 0.517 2.538v13.101q0 1.348-0.517 2.554t-1.41 2.1-2.084 1.41-2.538 0.517h-13.132q-1.348 0-2.538-0.517t-2.084-1.41-1.41-2.1-0.517-2.554v-13.101q0-1.348 0.517-2.538t1.41-2.084 2.084-1.41 2.538-0.518h13.132zM17.457 19.902q0.565-0.47 0.956-1.128t0.643-1.442 0.345-1.583 0-1.552q-0.094-0.815-0.501-1.583t-1.066-1.363-1.504-1.003-1.786-0.501q-1.442-0.156-2.774 0.189t-2.351 1.081-1.646 1.833-0.627 2.476q0 1.317 0.47 2.131t1.661 1.254q0.407-0.376 0.423-0.705t-0.141-0.658-0.376-0.69-0.251-0.799q-0.125-1.159 0.454-2.209t1.552-1.708 2.226-0.783 2.507 0.596q0.596 0.345 0.941 0.987t0.485 1.442 0.063 1.661-0.376 1.583-0.799 1.254-1.191 0.658q-0.439 0.094-0.894-0.016t-0.643-0.298q-0.501-0.47-0.407-1.066t0.345-1.285 0.454-1.41-0.078-1.379q-0.251-0.565-0.705-0.674t-0.894 0.109-0.799 0.658-0.454 0.941q-0.063 0.533 0.094 1.050t0.156 1.019q0 0.565-0.156 1.207t-0.36 1.317-0.407 1.317-0.298 1.207q-0.063 0.439-0.109 1.191t0.078 1.223l-0.031 0.031h1.034q0.533-0.909 0.909-2.131t0.658-2.351q0.156-0.156 0.235 0.063t0.235 0.314q0.47 0.376 1.128 0.454t1.317-0.016 1.27-0.345 0.987-0.565z"></path>
</svg>
