<!-- Generated by IcoMoon.io -->
<svg version="1.1" xmlns="http://www.w3.org/2000/svg" width="27" height="32" viewBox="0 0 27 32">
<title>tumblr-rounded</title>
<path d="M19.871 3.98q1.348 0 2.538 0.518t2.084 1.41 1.41 2.084 0.517 2.538v13.101q0 1.348-0.517 2.554t-1.41 2.1-2.084 1.41-2.538 0.517h-13.132q-1.348 0-2.538-0.517t-2.084-1.41-1.41-2.1-0.517-2.554v-13.101q0-1.348 0.517-2.538t1.41-2.084 2.084-1.41 2.538-0.518h13.132zM18.209 21.343q-1.191 0.721-2.351 0.721-0.658 0-1.159-0.282-0.407-0.251-0.565-0.658-0.063-0.189-0.031-0.565t0.031-1.034v-4.075h3.26v-2.476h-3.26v-3.26h-2.382q-0.125 1.097-0.533 1.88-0.407 0.752-1.066 1.254-0.345 0.282-0.83 0.47t-0.925 0.345v1.786h2.445v5.485q0 0.815 0.094 1.426t0.627 1.112q0.251 0.251 0.611 0.423t0.768 0.298q0.439 0.156 0.799 0.22t0.894 0.063q0.941 0 1.755-0.189 0.439-0.094 0.878-0.251t0.941-0.376v-2.32z"></path>
</svg>
