<!-- Generated by IcoMoon.io -->
<svg version="1.1" xmlns="http://www.w3.org/2000/svg" width="27" height="32" viewBox="0 0 27 32">
<title>youtube-rounded</title>
<path d="M19.871 3.98q1.348 0 2.538 0.518t2.084 1.41 1.41 2.084 0.517 2.538v13.101q0 1.348-0.517 2.554t-1.41 2.1-2.084 1.41-2.538 0.517h-13.132q-1.348 0-2.538-0.517t-2.084-1.41-1.41-2.1-0.517-2.554v-13.101q0-1.348 0.517-2.538t1.41-2.084 2.084-1.41 2.538-0.518h13.132zM11.314 15.89q0 0.721 0.47 1.128 0.439 0.407 1.254 0.407 0.846 0 1.285-0.407 0.47-0.376 0.47-1.128v-2.883q0-0.596-0.47-1.034-0.439-0.407-1.223-0.407-0.815 0-1.285 0.376-0.501 0.376-0.501 1.034v2.915zM9.622 17.425h-3.699v1.003h1.254v5.892h1.191v-5.892h1.254v-1.003zM9.653 14.166l1.568-4.451h-1.379l-0.815 3.040h-0.094l-0.878-3.040h-1.348l1.599 4.576v3.009h1.348v-3.134zM13.132 19.243h-1.066v3.855q-0.063 0.094-0.156 0.156l-0.189 0.125q-0.189 0.094-0.282 0.094-0.156 0-0.22-0.063t-0.063-0.282v-3.886h-1.066v4.262q0 0.439 0.189 0.658 0.189 0.251 0.533 0.251 0.282 0 0.627-0.189 0.282-0.125 0.627-0.47v0.565h1.066v-5.078zM16.988 20.465q0-0.627-0.282-0.972-0.22-0.314-0.752-0.314-0.282 0-0.501 0.125-0.251 0.094-0.439 0.345v-2.226h-1.097v6.895h1.097v-0.376q0.094 0.125 0.204 0.204t0.235 0.141q0.22 0.094 0.565 0.094 0.47 0 0.721-0.282 0.251-0.314 0.251-0.815v-2.821zM16.612 17.362q0.376 0 0.69-0.156t0.69-0.533v0.627h1.191v-5.61h-1.191v4.262q-0.125 0.156-0.376 0.314-0.189 0.094-0.314 0.094-0.22 0-0.251-0.094-0.094-0.094-0.094-0.282v-4.294h-1.191v4.702q0 0.501 0.22 0.721 0.156 0.251 0.627 0.251zM20.686 20.622q0-0.752-0.407-1.128-0.376-0.376-1.128-0.376t-1.159 0.407q-0.439 0.439-0.439 1.097v2.257q0 0.752 0.407 1.159 0.439 0.439 1.128 0.439 0.783 0 1.191-0.407 0.407-0.376 0.407-1.191v-0.251h-1.097v0.22q0 0.47-0.094 0.596-0.125 0.125-0.376 0.125-0.314 0-0.376-0.156-0.094-0.125-0.094-0.565v-0.941h2.037v-1.285zM19.119 19.995q0.251 0 0.345 0.156 0.125 0.125 0.125 0.439v0.533h-0.941v-0.533q0-0.282 0.094-0.439 0.156-0.156 0.376-0.156zM15.451 19.995q0.22 0 0.314 0.125 0.125 0.125 0.125 0.376v2.633q0 0.251-0.094 0.345-0.094 0.125-0.282 0.125-0.125 0-0.251-0.063-0.156-0.063-0.251-0.189v-3.165q0.125-0.125 0.22-0.156 0.063-0.031 0.22-0.031zM13.038 16.454q-0.251 0-0.345-0.125-0.156-0.094-0.156-0.345v-3.040q0-0.156 0.156-0.314 0.125-0.094 0.345-0.094t0.407 0.094q0.125 0.125 0.125 0.314v3.040q0 0.251-0.125 0.345-0.125 0.125-0.407 0.125z"></path>
</svg>
