<!-- Generated by IcoMoon.io -->
<svg version="1.1" xmlns="http://www.w3.org/2000/svg" width="30" height="32" viewBox="0 0 30 32">
<title>arrow-down</title>
<path fill="currentColor" d="M28.852 15.684q0 0.949-0.663 1.612l-11.659 11.677q-0.698 0.663-1.63 0.663-0.949 0-1.612-0.663l-11.659-11.677q-0.681-0.645-0.681-1.612 0-0.949 0.681-1.63l1.325-1.343q0.699-0.663 1.63-0.663 0.949 0 1.612 0.663l5.265 5.265v-12.608q0-0.931 0.681-1.612t1.612-0.681h2.292q0.931 0 1.612 0.681t0.681 1.612v12.608l5.265-5.265q0.663-0.663 1.612-0.663 0.931 0 1.63 0.663l1.343 1.343q0.663 0.698 0.663 1.63z"></path>
</svg>
