<!-- Generated by IcoMoon.io -->
<svg version="1.1" xmlns="http://www.w3.org/2000/svg" width="32" height="32" viewBox="0 0 32 32">
<title>bars</title>
<path fill="currentColor" d="M27.509 24.853v2.292q0 0.466-0.34 0.806t-0.806 0.34h-25.217q-0.466 0-0.806-0.34t-0.34-0.806v-2.292q0-0.466 0.34-0.806t0.806-0.34h25.217q0.466 0 0.806 0.34t0.34 0.806zM27.509 15.684v2.292q0 0.466-0.34 0.806t-0.806 0.34h-25.217q-0.466 0-0.806-0.34t-0.34-0.806v-2.292q0-0.466 0.34-0.806t0.806-0.34h25.217q0.466 0 0.806 0.34t0.34 0.806zM27.509 6.514v2.292q0 0.466-0.34 0.806t-0.806 0.34h-25.217q-0.466 0-0.806-0.34t-0.34-0.806v-2.292q0-0.466 0.34-0.806t0.806-0.34h25.217q0.466 0 0.806 0.34t0.34 0.806z"></path>
</svg>
