<!-- Generated by IcoMoon.io -->
<svg version="1.1" xmlns="http://www.w3.org/2000/svg" width="955" height="1024" viewBox="0 0 955 1024">
<title>calendar-o</title>
<path fill="currentColor" d="M73.359 978.696h806.935v-586.862h-806.935v586.862zM293.432 281.799v-165.055q0-8.024-5.157-13.183t-13.181-5.159h-36.678q-8.024 0-13.183 5.159t-5.159 13.183v165.055q0 8.024 5.159 13.183t13.183 5.157h36.678q8.024 0 13.183-5.157t5.157-13.183zM733.575 281.799v-165.055q0-8.024-5.159-13.183t-13.183-5.159h-36.68q-8.024 0-13.183 5.159t-5.159 13.183v165.055q0 8.024 5.159 13.183t13.183 5.157h36.68q8.024 0 13.183-5.157t5.159-13.183zM953.648 245.12v733.575q0 29.801-21.777 51.579t-51.579 21.777h-806.935q-29.801 0-51.581-21.777t-21.777-51.581v-733.575q0-29.801 21.777-51.581t51.581-21.777h73.359v-55.017q0-37.825 26.935-64.761t64.759-26.937h36.678q37.825 0 64.759 26.937t26.935 64.761v55.017h220.072v-55.017q0-37.825 26.935-64.761t64.761-26.937h36.68q37.825 0 64.761 26.937t26.935 64.761v55.017h73.359q29.801 0 51.579 21.777t21.777 51.581z"></path>
</svg>
