<!-- Generated by IcoMoon.io -->
<svg version="1.1" xmlns="http://www.w3.org/2000/svg" width="1024" height="1024" viewBox="0 0 1024 1024">
<title>clock-m</title>
<path fill="currentColor" d="M834.443 538.551c0-58.211-14.358-111.895-43.068-161.057s-67.65-88.102-116.814-116.814c-49.164-28.712-102.849-43.068-161.057-43.068s-111.895 14.356-161.057 43.068c-49.166 28.712-88.102 67.65-116.814 116.814s-43.068 102.849-43.068 161.057c0 58.209 14.356 111.895 43.068 161.057s67.65 88.1 116.814 116.814c49.166 28.712 102.849 43.068 161.057 43.068s111.895-14.358 161.057-43.068c49.164-28.712 88.1-67.65 116.814-116.814s43.068-102.849 43.068-161.057v0zM962.819 538.551c0 81.517-20.087 156.693-60.259 225.536s-94.679 123.345-163.521 163.521c-68.841 40.173-144.018 60.259-225.536 60.259s-156.695-20.087-225.536-60.259c-68.841-40.173-123.347-94.679-163.521-163.521s-60.259-144.018-60.259-225.536c0-81.517 20.087-156.695 60.259-225.536s94.679-123.347 163.521-163.521c68.841-40.173 144.018-60.259 225.536-60.259s156.695 20.085 225.536 60.259c68.841 40.173 123.347 94.679 163.521 163.521s60.259 144.018 60.259 225.536v0zM482.030 527.395c0.228 13.241 7.699 26.754 20.761 34.962l175.815 110.413c19.417 12.194 43.849 8.030 54.557-9.289 10.709-17.329 3.653-41.261-15.762-53.46l-166.937-104.829v-194.475c0-23.056-15.453-41.752-34.525-41.752s-34.525 18.698-34.525 41.752v208.773c0 2.702 0.212 5.345 0.618 7.905z"></path>
</svg>
