<!-- Generated by IcoMoon.io -->
<svg version="1.1" xmlns="http://www.w3.org/2000/svg" width="32" height="32" viewBox="0 0 32 32">
<title>credit-card-m</title>
<path fill="currentColor" d="M27.748 5.597c0.644 0 1.194 0.229 1.653 0.687s0.687 1.009 0.687 1.653v17.785c0 0.643-0.229 1.194-0.687 1.653s-1.009 0.687-1.653 0.687h-23.402c-0.644 0-1.194-0.229-1.653-0.687s-0.687-1.009-0.687-1.653v-17.785c0-0.643 0.229-1.194 0.687-1.653s1.009-0.687 1.653-0.687h23.402zM4.623 7.843c-0.124 0-0.231 0.042-0.321 0.125s-0.136 0.182-0.136 0.296v2.949h23.762v-2.949c0-0.114-0.045-0.213-0.136-0.296s-0.198-0.125-0.321-0.125h-22.848zM27.471 25.816c0.124 0 0.231-0.044 0.321-0.133s0.136-0.194 0.136-0.316v-8.537h-23.762v8.537c0 0.122 0.045 0.227 0.136 0.316s0.197 0.133 0.321 0.133h22.848zM6.326 23.569v-1.123h4.32v1.123h-4.32zM11.727 23.569v-1.123h5.4v1.123h-5.4z"></path>
</svg>
