<!-- Generated by IcoMoon.io -->
<svg version="1.1" xmlns="http://www.w3.org/2000/svg" width="734" height="1024" viewBox="0 0 734 1024">
  <path fill="currentColor" d="M73.359 905.339h586.862v-440.145h-238.412q-22.925 0-38.972-16.047t-16.047-38.972v-238.412h-293.432v733.575zM440.147 391.836h215.488q-5.731-16.62-12.609-23.497l-179.381-179.381q-6.878-6.878-23.497-12.609v215.488zM733.575 410.176v513.503q0 22.923-16.047 38.97t-38.97 16.047h-623.54q-22.923 0-38.97-16.047t-16.047-38.97v-770.255q0-22.925 16.047-38.972t38.97-16.047h366.788q22.925 0 50.433 11.461t43.556 27.511l178.81 178.81q16.047 16.047 27.509 43.556t11.461 50.433z"></path>
</svg>
