<!-- Generated by IcoMoon.io -->
<svg version="1.1" xmlns="http://www.w3.org/2000/svg" width="32" height="32" viewBox="0 0 32 32">
<title>info-circle</title>
<path fill="currentColor" d="M18.339 25.426v-2.866q0-0.251-0.161-0.412t-0.412-0.161h-1.719v-9.17q0-0.251-0.161-0.412t-0.412-0.161h-5.731q-0.251 0-0.412 0.161t-0.161 0.412v2.866q0 0.251 0.161 0.412t0.412 0.161h1.719v5.731h-1.719q-0.251 0-0.412 0.161t-0.161 0.412v2.866q0 0.251 0.161 0.412t0.412 0.161h8.023q0.251 0 0.412-0.161t0.161-0.412zM16.047 9.379v-2.866q0-0.251-0.161-0.412t-0.412-0.161h-3.439q-0.251 0-0.412 0.161t-0.161 0.412v2.866q0 0.251 0.161 0.412t0.412 0.161h3.439q0.251 0 0.412-0.161t0.161-0.412zM27.509 16.83q0 3.743-1.845 6.904t-5.006 5.006-6.904 1.845-6.904-1.845-5.006-5.006-1.845-6.904 1.845-6.904 5.006-5.006 6.904-1.845 6.904 1.845 5.006 5.006 1.845 6.904z"></path>
</svg>
