<!-- Generated by IcoMoon.io -->
<svg version="1.1" xmlns="http://www.w3.org/2000/svg" width="32" height="32" viewBox="0 0 32 32">
<title>pencil</title>
<path fill="currentColor" d="M6.501 28.292l1.63-1.63-4.209-4.209-1.63 1.63v1.916h2.292v2.292h1.916zM15.868 11.672q0-0.394-0.394-0.394-0.179 0-0.304 0.125l-9.707 9.707q-0.125 0.125-0.125 0.304 0 0.394 0.394 0.394 0.179 0 0.304-0.125l9.707-9.707q0.125-0.125 0.125-0.304zM14.901 8.233l7.45 7.45-14.901 14.901h-7.45v-7.45zM27.133 9.952q0 0.949-0.663 1.612l-2.973 2.973-7.45-7.45 2.973-2.955q0.645-0.681 1.612-0.681 0.949 0 1.63 0.681l4.209 4.191q0.663 0.698 0.663 1.63z"></path>
</svg>
