<!-- Generated by IcoMoon.io -->
<svg version="1.1" xmlns="http://www.w3.org/2000/svg" width="32" height="32" viewBox="0 0 32 32">
<title>question-circle</title>
<path fill="currentColor" d="M16.047 25.426v-3.439q0-0.251-0.161-0.412t-0.412-0.161h-3.439q-0.251 0-0.412 0.161t-0.161 0.412v3.439q0 0.251 0.161 0.412t0.412 0.161h3.439q0.251 0 0.412-0.161t0.161-0.412zM20.632 13.391q0-1.576-0.994-2.919t-2.481-2.078-3.045-0.734q-4.352 0-6.644 3.815-0.269 0.43 0.143 0.752l2.364 1.791q0.125 0.107 0.34 0.107 0.287 0 0.448-0.215 0.949-1.218 1.54-1.648 0.609-0.43 1.54-0.43 0.86 0 1.531 0.466t0.672 1.057q0 0.681-0.358 1.092t-1.218 0.806q-1.128 0.501-2.069 1.549t-0.94 2.248v0.645q0 0.251 0.161 0.412t0.412 0.161h3.439q0.251 0 0.412-0.161t0.161-0.412q0-0.34 0.385-0.887t0.976-0.887q0.573-0.322 0.878-0.51t0.824-0.627 0.797-0.86 0.501-1.084 0.224-1.451zM27.509 16.83q0 3.743-1.845 6.904t-5.006 5.006-6.904 1.845-6.904-1.845-5.006-5.006-1.845-6.904 1.845-6.904 5.006-5.006 6.904-1.845 6.904 1.845 5.006 5.006 1.845 6.904z"></path>
</svg>
