<!-- Generated by IcoMoon.io -->
<svg version="1.1" xmlns="http://www.w3.org/2000/svg" width="955" height="1024" viewBox="0 0 955 1024">
  <path fill="currentColor" d="M660.219 501.872q0-106.025-75.365-181.389t-181.387-75.363-181.387 75.363-75.365 181.389 75.365 181.387 181.387 75.365 181.387-75.365 75.365-181.387zM953.648 978.696q0 29.801-21.777 51.579t-51.579 21.777q-30.946 0-51.579-21.777l-196.576-196.003q-102.586 71.064-228.669 71.064-81.954 0-156.745-31.807t-128.948-85.966-85.966-128.95-31.807-156.745 31.807-156.745 85.966-128.95 128.948-85.966 156.745-31.807 156.745 31.807 128.95 85.966 85.966 128.95 31.807 156.745q0 126.083-71.064 228.669l196.576 196.576q21.206 21.206 21.206 51.579z"></path>
</svg>
