<!-- Generated by IcoMoon.io -->
<svg version="1.1" xmlns="http://www.w3.org/2000/svg" width="32" height="32" viewBox="0 0 32 32">
<title>sign-m</title>
<path fill="currentColor" d="M24.070 26.358c0 1.243-0.441 2.306-1.324 3.189s-1.946 1.324-3.189 1.324h-13.038c-1.243 0-2.306-0.441-3.189-1.324s-1.324-1.946-1.324-3.189v-13.038c0-1.243 0.441-2.306 1.324-3.189s1.946-1.324 3.189-1.324h4.499c0.113 0 0.352 0.045 0.432 0.186 0.080 0.142 0 0.381 0 0.381l-1.070 1.439h-3.861c-0.69 0-1.28 0.245-1.771 0.737s-0.737 1.081-0.737 1.771v13.038c0 0.69 0.245 1.28 0.737 1.771s1.081 0.737 1.771 0.737h13.038c0.69 0 1.28-0.246 1.771-0.737s0.737-1.081 0.737-1.771v-1.975c0-0.136 0.047-0.251 0.141-0.345l1.003-1.003c0.157-0.157 0.34-0.193 0.548-0.11s0.313 0.235 0.313 0.454v2.977zM18.346 8.867l-10.323 10.323v5.664h5.664l11.739-11.739-5.664-5.664-1.416 1.416zM29.674 6.856l-3.653-3.653c-0.552-0.552-1.458-0.552-2.011 0l-2.237 2.237 5.664 5.664 2.237-2.237c0.552-0.552 0.552-1.458 0-2.011z"></path>
</svg>
