<!-- Generated by IcoMoon.io -->
<svg version="1.1" xmlns="http://www.w3.org/2000/svg" width="1024" height="1024" viewBox="0 0 1024 1024">
<title>tag</title>
<path fill="currentColor" d="M256.752 281.799q0-30.375-21.493-51.866t-51.866-21.491-51.866 21.491-21.493 51.866 21.493 51.866 51.866 21.491 51.866-21.491 21.493-51.866zM868.256 611.911q0 30.375-21.206 51.579l-281.396 281.969q-22.352 21.206-52.153 21.206-30.375 0-51.579-21.206l-409.772-410.346q-21.777-21.204-36.964-57.884t-15.189-67.052v-238.412q0-29.801 21.777-51.579t51.581-21.777h238.412q30.375 0 67.052 15.189t58.457 36.964l409.77 409.198q21.206 22.352 21.206 52.153z"></path>
</svg>
