<!-- Generated by IcoMoon.io -->
<svg version="1.1" xmlns="http://www.w3.org/2000/svg" width="809" height="1024" viewBox="0 0 809 1024">
<title>user</title>
<path fill="currentColor" d="M806.935 830.262q0 68.771-41.837 108.604t-111.182 39.831h-500.894q-69.347 0-111.182-39.831t-41.837-108.604q0-30.375 2.006-59.318t8.024-62.469 15.189-62.182 24.642-55.878 35.534-46.422 49-30.662 63.901-11.461q5.159 0 24.071 12.322t42.695 27.509 61.895 27.511 76.51 12.322 76.51-12.322 61.895-27.511 42.697-27.509 24.071-12.322q34.958 0 63.901 11.461t49 30.662 35.532 46.422 24.644 55.878 15.189 62.182 8.024 62.469 2.006 59.318zM623.54 318.477q0 91.125-64.475 155.6t-155.6 64.475-155.6-64.475-64.475-155.6 64.475-155.598 155.6-64.475 155.6 64.475 64.475 155.598z"></path>
</svg>
