<svg version="1.1" xmlns="http://www.w3.org/2000/svg" width="16" height="16" viewBox="0 0 16 16">
  <title>arrow-up</title>
  <g>
    <path fill="currentColor" d="M6.9382716,14.9807407 L6.9382716,3.67407407 L1.77777778,8.60444444 C1.58024593,8.79407502 1.33333481,8.88888889 1.03703704,8.88888889 C0.740739259,8.88888889 0.493828148,8.79407502 0.296296296,8.60444444 C0.0987644444,8.39901132 0,8.15802607 0,7.88148148 C0,7.60493689 0.0987644444,7.3718528 0.296296296,7.18222222 L7.62962963,0.142222222 C7.72839556,0.0474069333 7.85185111,0 8,0 C8.14814889,0 8.27160444,0.0474069333 8.37037037,0.142222222 L15.7037037,7.18222222 C15.9012356,7.3718528 16,7.60493689 16,7.88148148 C16,8.15802607 15.9012356,8.39901132 15.7037037,8.60444444 C15.5061719,8.79407502 15.2592607,8.88888889 14.962963,8.88888889 C14.6666652,8.88888889 14.4197541,8.79407502 14.2222222,8.60444444 L9.0617284,3.67407407 L9.0617284,14.9807407 C9.0617284,15.2651866 8.95884877,15.5061719 8.75308642,15.7037037 C8.54732407,15.9012356 8.29629778,16 8,16 C7.70370222,16 7.45267593,15.9012356 7.24691358,15.7037037 C7.04115123,15.5061719 6.9382716,15.2651866 6.9382716,14.9807407 Z"></path>
  </g>
</svg>
