<!-- Generated by IcoMoon.io -->
<svg version="1.1" xmlns="http://www.w3.org/2000/svg" width="1024" height="1024" viewBox="0 0 1024 1024">
  <path fill="currentColor" d="M735.869 445.707q0-16.047-10.316-26.363l-52.153-51.579q-10.888-10.888-25.789-10.888t-25.789 10.888l-233.828 233.253-129.523-129.521q-10.888-10.888-25.789-10.888t-25.789 10.888l-52.153 51.579q-10.316 10.316-10.316 26.363 0 15.473 10.316 25.789l207.464 207.464q10.888 10.888 25.789 10.888 15.473 0 26.363-10.888l311.197-311.197q10.316-10.316 10.316-25.789zM880.292 538.551q0 119.779-59.029 220.933t-160.183 160.183-220.933 59.029-220.933-59.029-160.183-160.183-59.029-220.933 59.029-220.933 160.183-160.183 220.933-59.031 220.933 59.031 160.183 160.183 59.029 220.933z"></path>
</svg>
