<svg width="80px" height="80px" viewBox="0 0 80 80" version="1.1" xmlns="http://www.w3.org/2000/svg" xmlns:xlink="http://www.w3.org/1999/xlink">
    <title>check-circle-o</title>
    <g stroke="none" stroke-width="1" fill-rule="evenodd">
        <g transform="translate(-31.000000, -141.000000)">
            <g transform="translate(38.000000, 147.000000)">
                <circle fill="currentColor" stroke="#CCCCCC" stroke-width="5.58333333" cx="33.5" cy="33.5" r="30.7083333"></circle>
                <path fill="inherit" d="M27.9166667,40.3483073 L46.3242188,21.9407552 C46.6731788,21.5627151 47.1093724,21.3736979 47.6328125,21.3736979 C48.1562526,21.3736979 48.5924462,21.5627151 48.9414062,21.9407552 C49.2903663,22.2897153 49.4648438,22.7186389 49.4648438,23.2275391 C49.4648438,23.7364392 49.2903663,24.1799026 48.9414062,24.5579427 L29.2252604,44.2304687 C28.8763003,44.6085088 28.4401068,44.797526 27.9166667,44.797526 C27.3932265,44.797526 26.957033,44.6085088 26.6080729,44.2304687 L18.84375,36.5097656 C18.4947899,36.1317255 18.3203125,35.6882621 18.3203125,35.179362 C18.3203125,34.6704619 18.4947899,34.2415382 18.84375,33.8925781 C19.1927101,33.514538 19.6289036,33.3255208 20.1523438,33.3255208 C20.6757839,33.3255208 21.1119774,33.514538 21.4609375,33.8925781 L27.9166667,40.3483073 Z" fill-rule="nonzero"></path>
            </g>
        </g>
    </g>
</svg>