<!-- Generated by IcoMoon.io -->
<svg version="1.1" xmlns="http://www.w3.org/2000/svg" width="32" height="32" viewBox="0 0 32 32">
<title>echeck-m</title>
<path fill="currentColor" d="M27.748 6.029c0.644 0 1.194 0.22 1.653 0.661s0.687 0.97 0.687 1.589v17.101c0 0.619-0.229 1.148-0.687 1.589s-1.009 0.661-1.653 0.661h-23.402c-0.644 0-1.194-0.22-1.653-0.661s-0.687-0.97-0.687-1.589v-17.101c0-0.619 0.229-1.149 0.687-1.589s1.009-0.661 1.653-0.661h23.402zM4.623 8.189c-0.124 0-0.231 0.040-0.321 0.12s-0.136 0.175-0.136 0.285v2.835h23.762v-2.835c0-0.11-0.045-0.205-0.136-0.285s-0.198-0.12-0.321-0.12h-22.848zM27.471 25.47c0.124 0 0.231-0.070 0.321-0.208s0.136-0.303 0.136-0.494v-13.339h-23.762v13.339c0 0.19 0.045 0.355 0.136 0.494s0.197 0.208 0.321 0.208h22.848zM6.326 23.31v-1.080h5.4v1.080h-5.4zM5.246 12.509v-1.080h16.201v1.080h-16.201zM5.246 15.75v-1.080h10.801v1.080h-10.801zM12.807 23.31v-1.080h5.4v1.080h-5.4zM19.287 23.31v-1.080h5.4v1.080h-5.4z"></path>
</svg>
