<!-- Generated by IcoMoon.io -->
<svg version="1.1" xmlns="http://www.w3.org/2000/svg" width="38" height="32" viewBox="0 0 38 32">
<title>empty-cart</title>
<path fill="currentColor" d="M9.691 26.718c-0.549-0.383-0.905-1.011-0.908-1.723 0-0.457 0.21-1.007 0.605-1.785 0.061-0.118 0.125-0.242 0.195-0.373 0.086-0.162 0.311-0.568 0.459-0.835l-3.585-16.411h-3.737c-1.166 0-2.13-0.948-2.13-2.109 0-1.159 0.963-2.108 2.13-2.108h5.461c1.349 0 1.961 0.865 2.257 2.328 0.021 0.103 0.040 0.209 0.063 0.336 0.001 0.007 24.984 0.025 24.984 0.025 1.166 0 2.13 0.949 2.13 2.109v10.756c0 1.062-0.825 1.972-1.893 2.104l-21.411 2.464c0.069 0.312 0.096 0.535 0.096 0.81 0 0.209-0.025 0.392-0.079 0.581h18.427c1.166 0 2.13 0.948 2.13 2.109 0 0.709-0.361 1.34-0.908 1.722 0.561 0.605 0.906 1.417 0.908 2.31 0 1.895-1.582 3.454-3.495 3.454s-3.494-1.558-3.494-3.454c0-0.71 0.222-1.373 0.601-1.924h-13.327c0.379 0.551 0.601 1.214 0.601 1.925 0 1.895-1.582 3.453-3.494 3.453s-3.494-1.558-3.494-3.454c0-0.885 0.345-1.696 0.908-2.31zM14.244 29.029c0-1.046-0.893-1.926-1.966-1.926s-1.966 0.88-1.966 1.926 0.893 1.925 1.966 1.925 1.966-0.879 1.966-1.926zM33.357 29.029c0-1.046-0.893-1.926-1.967-1.926s-1.966 0.88-1.966 1.926 0.892 1.925 1.966 1.925c1.074 0 1.967-0.879 1.967-1.926zM36.087 6.172c0-0.311-0.274-0.581-0.601-0.581h-25.619c-0 0-0 0-0.001 0-0.366 0-0.672-0.257-0.747-0.601-0.024-0.114-0.045-0.228-0.072-0.386l-0.053-0.304c-0.020-0.115-0.037-0.208-0.055-0.296-0.168-0.833-0.359-1.103-0.759-1.103h-5.461c-0.327 0-0.601 0.27-0.601 0.581s0.274 0.581 0.601 0.581h4.352c0 0 0 0 0 0 0.364 0 0.669 0.255 0.745 0.596l3.776 17.295c0.011 0.049 0.018 0.106 0.018 0.165 0 0.129-0.032 0.251-0.089 0.358-0.067 0.127-0.477 0.866-0.592 1.081-0.065 0.122-0.125 0.237-0.18 0.345-0.28 0.552-0.439 0.97-0.439 1.093 0 0.311 0.274 0.581 0.601 0.581h21.844c0.327 0 0.601-0.27 0.601-0.581s-0.274-0.581-0.601-0.581h-19.625c-0.422 0-0.764-0.342-0.764-0.764 0-0.126 0.031-0.245 0.085-0.35 0.040-0.078 0.032-0.063 0.158-0.296 0.202-0.374 0.27-0.55 0.27-0.698 0-0.222-0.038-0.422-0.157-0.885-0.019-0.058-0.055-0.199-0.088-0.341-0.027-0.129-0.034-0.186-0.034-0.244 0-0.391 0.294-0.714 0.673-0.759l22.268-2.563c0.304-0.037 0.546-0.304 0.546-0.586v-10.756z"></path>
</svg>
