<!-- Generated by IcoMoon.io -->
<svg version="1.1" xmlns="http://www.w3.org/2000/svg" width="32" height="32" viewBox="0 0 32 32">
<title>ex-link-m</title>
<path fill="currentColor" d="M24.070 26.358c0 1.243-0.441 2.306-1.324 3.189s-1.946 1.324-3.189 1.324h-13.038c-1.243 0-2.306-0.441-3.189-1.324s-1.324-1.946-1.324-3.189v-13.038c0-1.243 0.441-2.306 1.324-3.189s1.946-1.324 3.189-1.324h4.499c0.113 0 0.352 0.045 0.432 0.186 0.080 0.142 0 0.381 0 0.381l-1.070 1.439h-3.861c-0.69 0-1.28 0.245-1.771 0.737s-0.737 1.081-0.737 1.771v13.038c0 0.69 0.245 1.28 0.737 1.771s1.081 0.737 1.771 0.737h13.038c0.69 0 1.28-0.246 1.771-0.737s0.737-1.081 0.737-1.771v-1.975c0-0.136 0.047-0.251 0.141-0.345l1.003-1.003c0.157-0.157 0.34-0.193 0.548-0.11s0.313 0.235 0.313 0.454v2.977zM25.371 7.803v8.023c0 0.272-0.099 0.507-0.298 0.705s-0.434 0.298-0.705 0.298c-0.272 0-0.507-0.099-0.705-0.298l-2.758-2.758-10.217 10.217c-0.104 0.104-0.225 0.157-0.36 0.157s-0.256-0.052-0.36-0.157l-1.787-1.787c-0.104-0.105-0.157-0.225-0.157-0.36s0.052-0.256 0.157-0.36l10.217-10.217-2.758-2.758c-0.198-0.198-0.298-0.434-0.298-0.705s0.099-0.507 0.298-0.705c0.198-0.199 0.434-0.298 0.705-0.298h8.024c0.272 0 0.507 0.099 0.705 0.298s0.298 0.434 0.298 0.705v0z"></path>
</svg>
