<!-- Generated by IcoMoon.io -->
<svg version="1.1" xmlns="http://www.w3.org/2000/svg" width="1024" height="1024" viewBox="0 0 1024 1024">
  <path fill="currentColor" d="M440.147 98.405q119.781 0 220.933 59.031t160.183 160.183 59.029 220.933-59.029 220.933-160.183 160.183-220.933 59.029-220.933-59.029-160.183-160.183-59.029-220.933 59.029-220.933 160.183-160.183 220.933-59.031zM513.503 813.069v-108.888q0-8.024-5.157-13.469t-12.609-5.444h-110.036q-7.45 0-13.183 5.731t-5.731 13.183v108.89q0 7.45 5.731 13.183t13.183 5.731h110.036q7.45 0 12.609-5.444t5.157-13.469zM512.358 615.921l10.316-355.9q0-6.876-5.731-10.316-5.731-4.585-13.754-4.585h-126.083q-8.024 0-13.754 4.585-5.731 3.438-5.731 10.316l9.743 355.9q0 5.731 5.731 10.030t13.754 4.298h106.025q8.024 0 13.467-4.298t6.018-10.030z"></path>
</svg>
