<!-- Generated by IcoMoon.io -->
<svg version="1.1" xmlns="http://www.w3.org/2000/svg" width="27" height="32" viewBox="0 0 27 32">
<title>facebook-rounded</title>
<path fill="currentColor" d="M19.871 3.98q1.348 0 2.538 0.518t2.084 1.41 1.41 2.084 0.517 2.538v13.101q0 1.348-0.517 2.554t-1.41 2.1-2.084 1.41-2.538 0.517h-13.132q-1.348 0-2.538-0.517t-2.084-1.41-1.41-2.1-0.517-2.554v-13.101q0-1.348 0.517-2.538t1.41-2.084 2.084-1.41 2.538-0.518h13.132zM18.209 9.715h-2.758q-0.815 0-1.504 0.282t-1.191 0.736-0.799 1.050-0.298 1.191v1.661h-2.445v3.26h2.445v6.582h3.291v-6.582h2.445v-3.26h-2.445v-0.815q0-0.407 0.298-0.627t0.518-0.22h2.445v-3.26z"></path>
</svg>
