<!-- Generated by IcoMoon.io -->
<svg version="1.1" xmlns="http://www.w3.org/2000/svg" width="32" height="32" viewBox="0 0 32 32">
<title>http-503</title>
<path fill="currentColor" d="M14.611 28.119c-0.033 0.007-0.067 0.010-0.102 0.010h-6.102c-0 0-0 0-0 0-0.279 0-0.506-0.226-0.506-0.506 0-0.001 0-0.001 0-0.002 0-0.28 0.229-0.507 0.506-0.507h6.102c0.035 0 0.069 0.004 0.102 0.010 0.185-0.698 0.723-1.238 1.406-1.423l0.014-1.63c0-0.001 0-0.001 0-0.002 0-0.28 0.227-0.508 0.508-0.508 0 0 0.001 0 0.001 0 0.281 0 0.508 0.229 0.508 0.51v1.627c0.697 0.189 1.234 0.728 1.417 1.412 0.036 0.007 0.070 0.003 0.105 0.003h6.102c0.28 0 0.506 0.225 0.506 0.508 0 0.28-0.229 0.508-0.506 0.508h-6.102c-0.035 0-0.069-0.004-0.102-0.010-0.229 0.866-1.005 1.494-1.928 1.494s-1.699-0.628-1.925-1.48zM16.539 28.678c0 0 0 0 0.001 0 0.583 0 1.057-0.473 1.057-1.056-0.001-0.583-0.474-1.056-1.057-1.056-0 0-0.001 0-0.001 0s-0 0-0.001 0c-0.584 0-1.057 0.473-1.057 1.056 0.001 0.583 0.474 1.056 1.057 1.056 0 0 0.001 0 0.001 0zM17.557 3.529l11.121 17.345c0.532 0.83 0.075 1.658-0.909 1.658h-22.414c-0.987 0-1.442-0.827-0.909-1.658l11.12-17.345c0.517-0.806 1.474-0.807 1.991 0zM5.231 21.377c-0.134 0.209-0.127 0.222 0.124 0.222h22.414c0.249 0 0.257-0.015 0.124-0.222l-11.121-17.345c-0.149-0.234-0.27-0.234-0.42 0l-11.121 17.345zM16.031 10.844c0-0.281 0.226-0.508 0.508-0.508 0 0 0 0 0.001 0 0.28 0 0.508 0.227 0.508 0.508 0 0 0 0 0 0v4.597c0 0.281-0.226 0.508-0.508 0.508-0 0-0 0-0.001 0-0.28 0-0.508-0.227-0.508-0.508 0-0 0-0 0-0v-4.598zM16.031 17.979c0-0.28 0.226-0.507 0.508-0.507 0.281 0 0.508 0.225 0.508 0.507v1.015c0 0.28-0.226 0.507-0.508 0.507-0.001 0-0.001 0-0.002 0-0.28 0-0.506-0.227-0.506-0.506 0-0 0-0.001 0-0.001v-1.015z"></path>
</svg>
