<!-- Generated by IcoMoon.io -->
<svg version="1.1" xmlns="http://www.w3.org/2000/svg" width="21" height="32" viewBox="0 0 21 32">
<title>lock</title>
<path fill="currentColor" d="M5.731 14.537h9.17v-3.439q0-1.898-1.343-3.242t-3.242-1.343-3.242 1.343-1.343 3.242v3.439zM20.632 16.257v10.316q0 0.716-0.501 1.218t-1.218 0.501h-17.193q-0.716 0-1.218-0.501t-0.501-1.218v-10.316q0-0.716 0.501-1.218t1.218-0.501h0.573v-3.439q0-3.295 2.364-5.659t5.659-2.364 5.659 2.364 2.364 5.659v3.439h0.573q0.716 0 1.218 0.501t0.501 1.218z"></path>
</svg>
