<!-- Generated by IcoMoon.io -->
<svg version="1.1" xmlns="http://www.w3.org/2000/svg" width="25" height="32" viewBox="0 0 25 32">
<title>remove</title>
<path fill="currentColor" d="M23.302 22.912q0 0.717-0.502 1.219l-2.438 2.438q-0.502 0.502-1.219 0.502t-1.219-0.502l-5.271-5.271-5.271 5.271q-0.502 0.502-1.219 0.502t-1.219-0.502l-2.438-2.438q-0.502-0.502-0.502-1.219t0.502-1.219l5.271-5.271-5.271-5.271q-0.502-0.502-0.502-1.219t0.502-1.219l2.438-2.438q0.502-0.502 1.219-0.502t1.219 0.502l5.271 5.271 5.271-5.271q0.502-0.502 1.219-0.502t1.219 0.502l2.438 2.438q0.502 0.502 0.502 1.219t-0.502 1.219l-5.271 5.271 5.271 5.271q0.502 0.502 0.502 1.219z"></path>
</svg>
