<!-- Generated by IcoMoon.io -->
<svg version="1.1" xmlns="http://www.w3.org/2000/svg" width="30" height="32" viewBox="0 0 30 32">
<title>shopping-cart</title>
<path fill="currentColor" d="M11.462 28.292q0 0.949-0.672 1.621t-1.621 0.672-1.621-0.672-0.672-1.621 0.672-1.621 1.621-0.672 1.621 0.672 0.672 1.621zM27.509 28.292q0 0.949-0.672 1.621t-1.621 0.672-1.621-0.672-0.672-1.621 0.672-1.621 1.621-0.672 1.621 0.672 0.672 1.621zM29.802 8.806v9.17q0 0.43-0.287 0.761t-0.734 0.385l-18.698 2.185q0.018 0.125 0.081 0.385t0.107 0.475 0.045 0.394q0 0.287-0.43 1.146h16.477q0.466 0 0.806 0.34t0.34 0.806-0.34 0.806-0.806 0.34h-18.339q-0.466 0-0.806-0.34t-0.34-0.806q0-0.251 0.197-0.707t0.528-1.066 0.367-0.681l-3.17-14.74h-3.654q-0.466 0-0.806-0.34t-0.34-0.806 0.34-0.806 0.806-0.34h4.585q0.287 0 0.51 0.116t0.358 0.278 0.233 0.439 0.134 0.475 0.099 0.528 0.081 0.457h21.509q0.466 0 0.806 0.34t0.34 0.806z"></path>
</svg>
