<!-- Generated by IcoMoon.io -->
<svg version="1.1" xmlns="http://www.w3.org/2000/svg" width="32" height="32" viewBox="0 0 32 32">
<title>times-circle</title>
<path fill="currentColor" d="M20.578 20.877q0-0.466-0.34-0.806l-3.242-3.242 3.242-3.242q0.34-0.34 0.34-0.806 0-0.484-0.34-0.824l-1.612-1.612q-0.34-0.34-0.824-0.34-0.466 0-0.806 0.34l-3.242 3.242-3.242-3.242q-0.34-0.34-0.806-0.34-0.484 0-0.824 0.34l-1.612 1.612q-0.34 0.34-0.34 0.824 0 0.466 0.34 0.806l3.242 3.242-3.242 3.242q-0.34 0.34-0.34 0.806 0 0.484 0.34 0.824l1.612 1.612q0.34 0.34 0.824 0.34 0.466 0 0.806-0.34l3.242-3.242 3.242 3.242q0.34 0.34 0.806 0.34 0.484 0 0.824-0.34l1.612-1.612q0.34-0.34 0.34-0.824zM27.509 16.83q0 3.743-1.845 6.904t-5.006 5.006-6.904 1.845-6.904-1.845-5.006-5.006-1.845-6.904 1.845-6.904 5.006-5.006 6.904-1.845 6.904 1.845 5.006 5.006 1.845 6.904z"></path>
</svg>
