<!-- Generated by IcoMoon.io -->
<svg version="1.1" xmlns="http://www.w3.org/2000/svg" width="1024" height="1024" viewBox="0 0 1024 1024">
  <path fill="currentColor" d="M237.794 904.519c5.721 45.786 50.626 83.348 99.925 83.348h351.543c49.322 0 94.266-37.562 99.937-83.348l73.253-589.899h-697.831l73.17 589.899zM676.274 390.419c1.482-15.696 16.077-27.224 32.664-25.968 16.693 1.346 29.043 15.084 27.715 30.746l-42.952 474.072c-1.376 15.563-16.137 27.148-32.63 25.811-16.717-1.267-29.057-14.984-27.681-30.59l42.88-474.070zM483.279 392.743c0-15.65 13.537-28.413 30.16-28.413 16.777 0 30.293 12.749 30.293 28.413v474.126c0 15.65-13.515 28.313-30.291 28.313-16.622 0-30.16-12.661-30.16-28.313v-474.126zM318.060 364.456c16.622-1.257 31.242 10.27 32.666 25.968l42.856 474.072c1.482 15.605-10.95 29.326-27.501 30.59-16.717 1.334-31.382-10.25-32.748-25.813l-42.95-474.070c-1.282-15.664 11.023-29.4 27.681-30.746zM627.447 144.706c0.71-3.035 1.199-6.17 1.199-9.54v-2.325c-0.012-23.998-20.977-43.606-46.582-43.606h-104.78c-25.581 0-46.595 19.607-46.595 43.596v2.325c0 3.368 0.546 6.503 1.233 9.54l195.521 0.010zM825.046 183.664h-623.094c-42.713 0.602-73.395 24.544-73.574 61.592v26.135h770.255v-26.135c-0.246-37.048-30.942-60.993-73.586-61.592z"></path>
</svg>
