<!-- Generated by IcoMoon.io -->
<svg version="1.1" xmlns="http://www.w3.org/2000/svg" width="27" height="32" viewBox="0 0 27 32">
<title>twitter-rounded</title>
<path fill="currentColor" d="M19.871 3.948q1.348 0 2.538 0.517t2.084 1.41 1.41 2.084 0.517 2.538v13.101q0 1.348-0.517 2.554t-1.41 2.1-2.084 1.41-2.538 0.517h-13.132q-1.348 0-2.538-0.517t-2.084-1.41-1.41-2.1-0.517-2.554v-13.101q0-1.348 0.517-2.538t1.41-2.084 2.084-1.41 2.538-0.518h13.132zM19.557 13.821q0.909-0.627 1.599-1.63-0.439 0.189-0.894 0.314t-0.925 0.189q1.034-0.658 1.379-1.786-0.941 0.596-2.006 0.783-0.941-1.003-2.351-1.003-0.658 0-1.238 0.251t-1.003 0.69-0.674 1.019-0.251 1.238q0 0.189 0.016 0.36t0.047 0.36q-1.975-0.094-3.667-0.987t-2.883-2.335q-0.439 0.721-0.439 1.599 0 0.815 0.392 1.504t1.019 1.128q-0.376 0-0.736-0.109t-0.705-0.267v0.031q0 1.159 0.736 2.022t1.833 1.112q-0.439 0.094-0.846 0.094h-0.298t-0.298-0.063q0.314 0.972 1.112 1.583t1.864 0.643q-0.815 0.627-1.833 1.003t-2.115 0.376q-0.22 0-0.407-0.016t-0.376-0.047q1.066 0.69 2.304 1.066t2.586 0.376q2.194 0 3.886-0.83t2.836-2.131 1.739-2.915 0.596-3.212v-0.407z"></path>
</svg>
